<mxfile host="app.diagrams.net" modified="2020-10-21T12:25:11.066Z" agent="5.0 (Windows)" etag="bwEeKJYHA5goIdu5pB4q" version="13.8.1" type="github" pages="2">
  <diagram id="ulsGIDtFhsmIXwHdDtSO" name="Page-1">
    <mxGraphModel dx="1422" dy="791" grid="1" gridSize="10" guides="1" tooltips="1" connect="1" arrows="1" fold="1" page="1" pageScale="1" pageWidth="827" pageHeight="1169" math="0" shadow="0">
      <root>
        <mxCell id="0" />
        <mxCell id="1" parent="0" />
        <mxCell id="PbtdcRw7RCsZxsqq4dKP-1" value="" style="rounded=0;whiteSpace=wrap;html=1;" parent="1" vertex="1">
          <mxGeometry width="820" height="1860" as="geometry" />
        </mxCell>
        <mxCell id="PbtdcRw7RCsZxsqq4dKP-2" value="" style="rounded=0;whiteSpace=wrap;html=1;" parent="1" vertex="1">
          <mxGeometry width="120" height="1690" as="geometry" />
        </mxCell>
        <mxCell id="PbtdcRw7RCsZxsqq4dKP-3" value="" style="rounded=0;whiteSpace=wrap;html=1;" parent="1" vertex="1">
          <mxGeometry width="120" height="100" as="geometry" />
        </mxCell>
        <mxCell id="PbtdcRw7RCsZxsqq4dKP-4" value="" style="rounded=0;whiteSpace=wrap;html=1;fillColor=#e1d5e7;strokeColor=#9673a6;" parent="1" vertex="1">
          <mxGeometry y="100" width="120" height="80" as="geometry" />
        </mxCell>
        <mxCell id="PbtdcRw7RCsZxsqq4dKP-5" value="" style="rounded=0;whiteSpace=wrap;html=1;fillColor=#e1d5e7;strokeColor=#9673a6;" parent="1" vertex="1">
          <mxGeometry y="180" width="120" height="80" as="geometry" />
        </mxCell>
        <mxCell id="PbtdcRw7RCsZxsqq4dKP-6" value="&lt;div&gt;&lt;br&gt;&lt;/div&gt;&lt;div&gt;&lt;br&gt;&lt;/div&gt;&lt;div style=&quot;font-size: 21px&quot;&gt;Project&lt;br&gt;&lt;/div&gt;" style="rounded=0;whiteSpace=wrap;html=1;fillColor=#e1d5e7;strokeColor=#9673a6;" parent="1" vertex="1">
          <mxGeometry y="260" width="120" height="80" as="geometry" />
        </mxCell>
        <mxCell id="PbtdcRw7RCsZxsqq4dKP-7" value="" style="rounded=0;whiteSpace=wrap;html=1;fillColor=#e1d5e7;strokeColor=#9673a6;" parent="1" vertex="1">
          <mxGeometry y="340" width="120" height="80" as="geometry" />
        </mxCell>
        <mxCell id="PbtdcRw7RCsZxsqq4dKP-8" value="" style="endArrow=none;html=1;exitX=0;exitY=1;exitDx=0;exitDy=0;entryX=1;entryY=0;entryDx=0;entryDy=0;" parent="1" source="PbtdcRw7RCsZxsqq4dKP-3" target="PbtdcRw7RCsZxsqq4dKP-3" edge="1">
          <mxGeometry width="50" height="50" relative="1" as="geometry">
            <mxPoint x="20" y="80" as="sourcePoint" />
            <mxPoint x="70" y="30" as="targetPoint" />
          </mxGeometry>
        </mxCell>
        <mxCell id="PbtdcRw7RCsZxsqq4dKP-9" value="" style="endArrow=none;html=1;entryX=0;entryY=0;entryDx=0;entryDy=0;exitX=1;exitY=0;exitDx=0;exitDy=0;" parent="1" source="PbtdcRw7RCsZxsqq4dKP-4" target="PbtdcRw7RCsZxsqq4dKP-3" edge="1">
          <mxGeometry width="50" height="50" relative="1" as="geometry">
            <mxPoint x="390" y="410" as="sourcePoint" />
            <mxPoint x="440" y="360" as="targetPoint" />
            <Array as="points">
              <mxPoint x="120" y="100" />
            </Array>
          </mxGeometry>
        </mxCell>
        <mxCell id="PbtdcRw7RCsZxsqq4dKP-10" value="" style="rounded=0;whiteSpace=wrap;html=1;" parent="1" vertex="1">
          <mxGeometry x="120" width="700" height="420" as="geometry" />
        </mxCell>
        <mxCell id="PbtdcRw7RCsZxsqq4dKP-11" value="" style="endArrow=none;html=1;entryX=1;entryY=0;entryDx=0;entryDy=0;exitX=0;exitY=1;exitDx=0;exitDy=0;" parent="1" source="PbtdcRw7RCsZxsqq4dKP-10" target="PbtdcRw7RCsZxsqq4dKP-10" edge="1">
          <mxGeometry width="50" height="50" relative="1" as="geometry">
            <mxPoint x="389" y="235" as="sourcePoint" />
            <mxPoint x="439" y="185" as="targetPoint" />
          </mxGeometry>
        </mxCell>
        <mxCell id="PbtdcRw7RCsZxsqq4dKP-12" value="" style="endArrow=none;html=1;entryX=1;entryY=0;entryDx=0;entryDy=0;exitX=0;exitY=0;exitDx=0;exitDy=0;" parent="1" source="PbtdcRw7RCsZxsqq4dKP-10" target="PbtdcRw7RCsZxsqq4dKP-14" edge="1">
          <mxGeometry width="50" height="50" relative="1" as="geometry">
            <mxPoint x="480" y="300" as="sourcePoint" />
            <mxPoint x="530" y="250" as="targetPoint" />
          </mxGeometry>
        </mxCell>
        <mxCell id="PbtdcRw7RCsZxsqq4dKP-14" value="" style="rounded=0;whiteSpace=wrap;html=1;" parent="1" vertex="1">
          <mxGeometry x="120" y="420" width="700" height="440" as="geometry" />
        </mxCell>
        <mxCell id="PbtdcRw7RCsZxsqq4dKP-15" value="" style="rounded=0;whiteSpace=wrap;html=1;fillColor=#d80073;strokeColor=#A50040;fontColor=#ffffff;" parent="1" vertex="1">
          <mxGeometry x="160" y="440" width="600" height="180" as="geometry" />
        </mxCell>
        <mxCell id="PbtdcRw7RCsZxsqq4dKP-16" value="" style="rounded=0;whiteSpace=wrap;html=1;fillColor=#d80073;strokeColor=#A50040;fontColor=#ffffff;" parent="1" vertex="1">
          <mxGeometry x="160" y="620" width="600" height="170" as="geometry" />
        </mxCell>
        <mxCell id="PbtdcRw7RCsZxsqq4dKP-17" value="" style="rounded=0;whiteSpace=wrap;html=1;" parent="1" vertex="1">
          <mxGeometry x="120" y="860" width="700" height="290" as="geometry" />
        </mxCell>
        <mxCell id="PbtdcRw7RCsZxsqq4dKP-19" value="" style="rounded=0;whiteSpace=wrap;html=1;" parent="1" vertex="1">
          <mxGeometry x="190" y="910" width="150" height="210" as="geometry" />
        </mxCell>
        <mxCell id="PbtdcRw7RCsZxsqq4dKP-20" value="" style="rounded=0;whiteSpace=wrap;html=1;" parent="1" vertex="1">
          <mxGeometry x="370" y="910" width="150" height="210" as="geometry" />
        </mxCell>
        <mxCell id="PbtdcRw7RCsZxsqq4dKP-21" value="" style="rounded=0;whiteSpace=wrap;html=1;" parent="1" vertex="1">
          <mxGeometry x="560" y="910" width="150" height="210" as="geometry" />
        </mxCell>
        <mxCell id="PbtdcRw7RCsZxsqq4dKP-23" value="" style="rounded=0;whiteSpace=wrap;html=1;fillColor=#d80073;strokeColor=#A50040;fontColor=#ffffff;" parent="1" vertex="1">
          <mxGeometry x="190" y="1000" width="150" height="120" as="geometry" />
        </mxCell>
        <mxCell id="PbtdcRw7RCsZxsqq4dKP-24" value="" style="rounded=0;whiteSpace=wrap;html=1;fillColor=#d80073;strokeColor=#A50040;fontColor=#ffffff;" parent="1" vertex="1">
          <mxGeometry x="370" y="1000" width="150" height="120" as="geometry" />
        </mxCell>
        <mxCell id="PbtdcRw7RCsZxsqq4dKP-25" value="" style="rounded=0;whiteSpace=wrap;html=1;fillColor=#d80073;strokeColor=#A50040;fontColor=#ffffff;" parent="1" vertex="1">
          <mxGeometry x="560" y="1000" width="150" height="120" as="geometry" />
        </mxCell>
        <mxCell id="PbtdcRw7RCsZxsqq4dKP-27" value="Download Resume" style="rounded=1;whiteSpace=wrap;html=1;fillColor=#0050ef;strokeColor=#001DBC;fontColor=#ffffff;" parent="1" vertex="1">
          <mxGeometry x="560" y="800" width="180" height="50" as="geometry" />
        </mxCell>
        <mxCell id="PbtdcRw7RCsZxsqq4dKP-28" value="About Me" style="rounded=0;whiteSpace=wrap;html=1;fillColor=#60a917;strokeColor=#2D7600;fontColor=#ffffff;fontSize=20;" parent="1" vertex="1">
          <mxGeometry x="170" y="450" width="150" height="30" as="geometry" />
        </mxCell>
        <mxCell id="PbtdcRw7RCsZxsqq4dKP-29" value="Skills" style="rounded=0;whiteSpace=wrap;html=1;fillColor=#60a917;strokeColor=#2D7600;fontColor=#ffffff;fontSize=20;" parent="1" vertex="1">
          <mxGeometry x="170" y="625" width="150" height="30" as="geometry" />
        </mxCell>
        <mxCell id="PbtdcRw7RCsZxsqq4dKP-30" value="Projects" style="rounded=0;whiteSpace=wrap;html=1;fillColor=#60a917;strokeColor=#2D7600;fontColor=#ffffff;fontSize=20;" parent="1" vertex="1">
          <mxGeometry x="120" y="860" width="150" height="30" as="geometry" />
        </mxCell>
        <mxCell id="PbtdcRw7RCsZxsqq4dKP-33" value="" style="endArrow=none;html=1;exitX=0;exitY=0;exitDx=0;exitDy=0;entryX=1;entryY=0;entryDx=0;entryDy=0;" parent="1" source="PbtdcRw7RCsZxsqq4dKP-24" edge="1">
          <mxGeometry width="50" height="50" relative="1" as="geometry">
            <mxPoint x="400" y="1010" as="sourcePoint" />
            <mxPoint x="520" y="910" as="targetPoint" />
          </mxGeometry>
        </mxCell>
        <mxCell id="PbtdcRw7RCsZxsqq4dKP-34" value="" style="endArrow=none;html=1;entryX=0;entryY=0;entryDx=0;entryDy=0;exitX=1;exitY=0;exitDx=0;exitDy=0;" parent="1" target="PbtdcRw7RCsZxsqq4dKP-20" edge="1">
          <mxGeometry width="50" height="50" relative="1" as="geometry">
            <mxPoint x="520" y="1000" as="sourcePoint" />
            <mxPoint x="400" y="900" as="targetPoint" />
            <Array as="points">
              <mxPoint x="520" y="1000" />
            </Array>
          </mxGeometry>
        </mxCell>
        <mxCell id="PbtdcRw7RCsZxsqq4dKP-35" value="" style="endArrow=none;html=1;exitX=0;exitY=0;exitDx=0;exitDy=0;entryX=1;entryY=0;entryDx=0;entryDy=0;" parent="1" source="PbtdcRw7RCsZxsqq4dKP-25" edge="1">
          <mxGeometry width="50" height="50" relative="1" as="geometry">
            <mxPoint x="590" y="1010" as="sourcePoint" />
            <mxPoint x="710" y="910" as="targetPoint" />
          </mxGeometry>
        </mxCell>
        <mxCell id="PbtdcRw7RCsZxsqq4dKP-36" value="" style="endArrow=none;html=1;entryX=0;entryY=0;entryDx=0;entryDy=0;exitX=1;exitY=0;exitDx=0;exitDy=0;" parent="1" target="PbtdcRw7RCsZxsqq4dKP-21" edge="1">
          <mxGeometry width="50" height="50" relative="1" as="geometry">
            <mxPoint x="710" y="1000" as="sourcePoint" />
            <mxPoint x="590" y="900" as="targetPoint" />
            <Array as="points">
              <mxPoint x="710" y="1000" />
            </Array>
          </mxGeometry>
        </mxCell>
        <mxCell id="PbtdcRw7RCsZxsqq4dKP-38" value="" style="rounded=0;whiteSpace=wrap;html=1;" parent="1" vertex="1">
          <mxGeometry x="120" y="1150" width="700" height="540" as="geometry" />
        </mxCell>
        <mxCell id="PbtdcRw7RCsZxsqq4dKP-39" value="" style="rounded=0;whiteSpace=wrap;html=1;fillColor=#f8cecc;strokeColor=#b85450;" parent="1" vertex="1">
          <mxGeometry x="150" y="1190" width="360" height="470" as="geometry" />
        </mxCell>
        <mxCell id="PbtdcRw7RCsZxsqq4dKP-40" value="" style="rounded=0;whiteSpace=wrap;html=1;" parent="1" vertex="1">
          <mxGeometry x="540" y="1190" width="250" height="250" as="geometry" />
        </mxCell>
        <mxCell id="PbtdcRw7RCsZxsqq4dKP-41" value="&lt;div style=&quot;font-size: 23px;&quot;&gt;Get in Touch&lt;br style=&quot;font-size: 23px;&quot;&gt;&lt;/div&gt;" style="text;html=1;strokeColor=none;fillColor=none;align=left;verticalAlign=top;whiteSpace=wrap;rounded=0;fontSize=23;" parent="1" vertex="1">
          <mxGeometry x="160" y="1200" width="160" height="50" as="geometry" />
        </mxCell>
        <mxCell id="PbtdcRw7RCsZxsqq4dKP-44" value="&amp;nbsp;Your name" style="rounded=0;whiteSpace=wrap;html=1;fontSize=23;align=left;" parent="1" vertex="1">
          <mxGeometry x="220" y="1270" width="210" height="50" as="geometry" />
        </mxCell>
        <mxCell id="PbtdcRw7RCsZxsqq4dKP-45" value="" style="rounded=0;whiteSpace=wrap;html=1;fontSize=23;align=left;" parent="1" vertex="1">
          <mxGeometry x="160" y="1270" width="60" height="50" as="geometry" />
        </mxCell>
        <mxCell id="PbtdcRw7RCsZxsqq4dKP-53" value="" style="rounded=0;whiteSpace=wrap;html=1;fontSize=23;align=left;" parent="1" vertex="1">
          <mxGeometry x="160" y="1350" width="60" height="50" as="geometry" />
        </mxCell>
        <mxCell id="PbtdcRw7RCsZxsqq4dKP-55" value="" style="rounded=0;whiteSpace=wrap;html=1;fontSize=23;align=left;" parent="1" vertex="1">
          <mxGeometry x="160" y="1420" width="60" height="40" as="geometry" />
        </mxCell>
        <mxCell id="PbtdcRw7RCsZxsqq4dKP-56" value="Message" style="rounded=0;whiteSpace=wrap;html=1;fontSize=23;align=left;" parent="1" vertex="1">
          <mxGeometry x="220" y="1480" width="210" height="100" as="geometry" />
        </mxCell>
        <mxCell id="PbtdcRw7RCsZxsqq4dKP-57" value="" style="rounded=0;whiteSpace=wrap;html=1;fontSize=23;align=left;labelBorderColor=#000000;" parent="1" vertex="1">
          <mxGeometry x="160" y="1480" width="60" height="100" as="geometry" />
        </mxCell>
        <mxCell id="PbtdcRw7RCsZxsqq4dKP-58" value="&lt;div align=&quot;center&quot;&gt;&amp;nbsp;SEND&lt;/div&gt;" style="rounded=0;whiteSpace=wrap;html=1;fontSize=23;align=center;fillColor=#0050ef;strokeColor=#001DBC;fontColor=#ffffff;rotation=0;" parent="1" vertex="1">
          <mxGeometry x="220" y="1600" width="210" height="50" as="geometry" />
        </mxCell>
        <mxCell id="PbtdcRw7RCsZxsqq4dKP-61" value="" style="shape=image;verticalLabelPosition=bottom;labelBackgroundColor=#ffffff;verticalAlign=top;aspect=fixed;imageAspect=0;image=data:image/png,iVBORw0KGgoAAAANSUhEUgAAATwAAAE3CAYAAAA3wv3FAAAgAElEQVR4nO2dz08kybbf+X+ahB7vyaL77U1BjyUby7o7Y3mB5AWWjSyZldEgDfdqZIY3F400NBJ66svjiZbQZWQeI8bCPLUl2o3V4MYSjHhCxpgF4AWwireAk3XiZERkVBFVmUV8U/qoGyorK05W5ocTP7MnSesKAABioKfsAgAAQKeA8AAA0QDhAQCiAcIDAEQDhAc6Su/AkOodGNL+r5HWVW86pF6k9P+Hn/k+ZccAuhcID3QUKbgkrau+2nD22os0D4QHQgHhgY6RZWxMXP2DI+rlqzeqf3DkcR+R2Rl+LjsO0L1AeKBj9Kb1LGtL0obsvnr9tS49kcllVdzawzHKjgN0LxAe6BgkvN6aLjvCJj0ID4SircIbn5xWOx8+qvOLS8W384tLtfPhoxqfnG7qOCenZ9pxrq5v1N7+gZqdX3S+f3N7V3vf5vaudV/Xfq1usny3d/eF+7Tr3Mpz4budnJ4Vlolv8tzJ7+73P7zVZEf8/oe32n7ffv/TQ3W29iBLeZyizXVel1fX1eHRsbq6vsnFuraxpUbHJkq/QUFY2iY83xtrbWPLeZydDx+9jnNyeuZ9k9/e3VsvZr61Q3gLSyvGffb2DzpybqsivN/+/swovD/8sKTt1w7hTc3M5SRn2m7v7guvT9BdtEV4e/sHTV2Utouq2ePc3t2rqZm53HFMN7lNMHxrh/AOj46tZe/Eua2K8JRS6q/+5s+FwpudX8x6b3tr5uO4Nim8qZk5Y4bt2pr5YwSqTXDhrW1saRfL7d29Wl5dzzIqqorJTWZn8jhKPdxEfL+FpRVjlU6WyXaTm/76y88rilfegK59R8cmcjcS35ZX1ztybiWz84tNx21CHoN6V03nicr/L/71v3MK7/d/+dYqvJPTM2PPr+v8y8zu/OJSLSytZPuMT04brxe+D+heggpvdGxC++tpy7iSNC+hnQ8frcdRSlmPk6T5m0mKwyY8kxz5Flp4y6vr2r7jk9PaDXh4dNz2c2uiHcL7L9u72eDhvtqw+s2Smf23//4/tM6LnPB+eKv6B0ey8XhSeNlYPQ/hyfPiOt/ynFxd35R6o4IwBBWevKGL2j+o04FnKabjFN2w45PT2v5SZK5qnJQj30ILj1dnqYwyI7O1LYY6tyZCCK93YEg7BgmvrzasXr56o377e3tV9N/8h2/Uy1dv1MtXb3LC+8MPS1nvbe+AQXgDclaG+5z4nGtCZuDI8rqfoMKTF4hvL2zRcVzZHSHFwy9mU6cF/z/fl28hhSersySsqZk54+/bdW5NtEN4m7/uZrL76vXXmvBk9n5yeqaSx31lL+0ffljKsr/+wZF8lTabktYQn6l88o+iK7uznZeiP7yg+gQVXjPZTujjSKnx9jn5miuD1G7agMIzVWfpNZ55mKrZIc+tiSDCk+fu112tbY4L77fTM/Xxfx5q+/9x6U8qqQ07hffV66+tVWPTxq+BVmPkm0/HDag2UQrP9BmURTZ7U/iW1VSdJWRnhCl76zbh/e1//Tun8P75v/q3WqZ3dX2j/unYRK4sEB4ISbTCk1VJupibvSl8yiqrs/K4srplqjpVX3h6lbZIeL0DQ2rtz1u5z4XwQDuJVnhJam6Ubvam8CmrzOBMbZJ8eI2pR7DqwktSkeH92hCe7LTgbW+8On97d6+W/1qv+ueEJ8SZpPXGslKOqWcQHkjSwMKTg2qLGtZPTs/U4dGxWl5d1/aVxwndaUG/l0M9ZC9eKOHJsYI+mxwjGOrcmihTeN9+/5P2PvkdyCloPMP77fRM9dWGH8bpDbg7LWRGj06LOCltWIqr10wep2ike7PDUvhrpgHOtIUQniyb7yZjDnVuTTQjPN4bSmPjqDeWb7xK+/LVG01UXHhJap99otSD+Pk4PSm8l6/eZNJrLCCqD1ExZZNKFf/RwLCU50fbBx7bLip5kfOLyTTw2DYLYXRsIpdBFU2nksewZWAhhOcSqmuTU81CnVsTvsKTC3Ry2X31+mvtGFx48jzJquH45LR1ute33/+kkrRuHN7y2+lZNlzFlOnJxUbldXB+cek97tF36h+oNsGnlpnGvPHBr1Mzc7kb0jQUo51Ty+Tr8obnn1cUb5HwitrmXDEXzRhp9dwWxW+Km493o7ayvtqw6h8cycTGt7/99e/Uy1dvjOfJ1BZmGxz+7fc/ZZmgzBRpAQIamNxXG9aXhxerJGNqGSh98QDXFKl2LR5g+ixTteqpwvPpfXXtb6qKhjq3HC/hpfrgXsrsCJPwbOfJJDyTjJTShSenqPEVV6gcD9LLy47+j8UD4qZty0P5LOt0dX1TeEP6ru7RzPJQpn1M1aqnCk9mbD5ZgsxYTVWuUOeW8BNeo80uYdVYm/A2f304BommSHhJWld/XPpTLg7eedM7MGQVHhcff0YGLwP9PDUz59WRhOWhnh+lLADa7AKLRQuAFonER3im/Z4qPB63bxuQlKTthgt1bpPUT3hcdqbVinPC225eeKbzSctDmY4jhUfypeot/3zeqUGfVbQAaMjpe6AaYIl34AXvoOBZnfw/iSZJzY9hLPwcS1VU/sw7S6TwjNJLixcXAM8fCA940WeoxkqopzRJLc+cLRCeS3YmuIALpVewuACIAwgPZDQei9h4IHaS1guzqUx2tfxDs1sRns/P2f9rw6rfkXFS2V6k+WWkTIuH4tm3zxsID6gkbdzomRgenyFhkp2pk6AxXCX/4Ox2PESbl7Nv0LeM9cYUtIKylv19gPYA4YGG7ITwimSnyWSgMRjZlJWFloipnLayyuqtHKfXznKCagHhgXx2l5rbx1zCS9J69oBtfszQmZPsce1Nh7JeY1/p8XLaylr2dwLaA4QHsjF2vFG/SCAmmSSpXR7tEF6S6g/09hW06Vhow4sDCA9kPZiU+TQjO5f0suMPNDpCQpbb1DvbqpzbWU5QHSA8kAmvrzac64G19cr6yCQ7fhtEYiqfb1nlMBoILx4gPJBhkxiXmW2WBYekRxQtztksRdmcj5z/0V/8k/xA6cDlBNUDwgMqSe0Sod/xzM1nqArtz3tTQ4ikMMt8/UYlg8PZZ9FqLqb30O/aUU5QTSC8CKDxZ3wtO36Dv/wLdxtY/+CISmr6AgIu6fGZDrJDpGjAr5wGRj2xvQNDzuop/dw3OJJJi0uvqCqe8HI6OjHQqdHdQHgRIGVHY+6StF5YPW1MzdIH6yZpPVe9Nc1yePnqjS69WvGUMT4e8IVDdvIz9QHQeqbmqorLIStF5YPwuhcILwLkKsW9nrLLqrGpOSNLUr9hITyD6rVkUPxnX9lJMevT4ura8amsrmPwNj3bcBXIrruB8CJAmyMrZGeTVE52qb0K6jMjo3G8gsHJXMyPg4pt1VdNdgOs2uwQVZH0eIcLMrznB4QXAVICRePXcrKr2SVCv2umI8M64FfLRPNyMnVY8GXdTcJLDD/7lFN7MBDa8J4NEF4k+GQ4mpRSJrvUPf2KsjEax9eM9Pj/eaeIrZzGNjstK3Scg0foWRw+Cw6U/b2BsEB4EeArO2prywQiGv+t7VqOrMyURebH6bEqd0E5TdXYF+lDR4crI+M91T5zhU2ZHj9e2d8paA0ILxLkasV86AifeSCHrJhkx0VHvaK2RzeahKdnko3PSmrucXO2aqytZ1Urd1o3lpPi54Oq5fkxxV/29wlaA8KLhL7acCH5BUDNvZ0ya5Lj/JrJoJL0sSOjVjcKx9Sp0JCtuVMlX+U2jOtjw2uKzkuS5rNb0J1AeCAIPIPyGacnq422JZ5M2RYArQLhgSDwzIn/vmhYSeFUMUtbGgCtAOGBIPApYEmqV4F9FxOVUuRti/KYALQChAeCYOvJlIOTfaQnZYceUhAKCA8EoWg2Qm86VPiwHdM4OMxyACGB8EAwrOPg2GrKMtOzdVL0DTaGnkB0IBQQHgiCcxwcWyUlSYsXHHj56o1KavqiB2XHB54HEB4IgrUNL9U7NIqWadLX0tMfLATAU4HwQBCKqp1FsvOZggbAU4HwQBCsc1gNvbSuAcamMXhowwOhgPBAEFzCs3VU+AiPS6/sGEH3A+GBINja8Gzj77jMOLYqL6q3IAQQHgiCqZdWVmNpiljROnO0j+zNhfTAU4HwQBDkcBQSlklwPh0c/HUuwLLjBN0NhAeC4VyAc+BxkU7Tsk4M+R7MsAAhgfBAEKxr0bGfbc/FlQtzytWLITwQCggPBMFHSvoCozLbY7+D6ECbgPAAANEA4QEAogHCAwBEA4QHAIgGCA8AEA0QHgAgGiA8AEA0QHgAgGiA8AAA0QDhAQCiAcIDAEQDhAcAiAYIDwAQDRAeACAaIDwAQDRAeACAaAgmvM3tXXVyeqZxeHSsxienSwns0+cvirZPn780/Xqr+3/6/EV9892Pud+fX1xm7//5l53s999896Oybfw4rcZDx5dlGv7duFJKqbfv3qvzi0t1fnGZOybtQ+X1KScAVSaY8Gi7ur5RJ6dn2c+b27sdD+rnX3a0G/j84lKTTNHrzR6P72cSwPnFpSahn3/ZaerznhoPlYt/xqfPX7J9uPxc5TDx9t17Nfy78dIuYACaIZjwrq5v1Ob2rsbJ6VnbhEc3qelmk9KhLMf3ddPxeKY6Pjmd258yuPOLS+3YtC8vp6vstD//vBDx8EzN9Prbd++131EZXRn6+OR0TpIAVJlgwjs5Pcv9jsTXjoJ3SngmudExSAbffPdjJhMpPNuxzy8ujTLhmVfIeHjV1lYN5VL89PlLYVW/KPsDoGo8S+GFrNLahGWThi3D83m/KRsMGQ+189lEJqXoqqp++vyltPZZAFqlq4RHQrBtfF+qovGspZnXCVeG5iM8+p1swzMJ7+dfdqwyChEPxeKqhpIUXfvwjBaAbqKrhMcpqtK6Gu2LXuc8NcPj+9P2zXc/GvezHTNEPHS+aLNlb7aMVB6nzIsWgFZ5dsIrElSzAvNpw+PYhGcqu6kjpF3x8CxTZpw+8TYTHwBVJZjwzi8u1ez8osbe/kHXC49eK+ql5eeBH8ckN1svqakTIEQ8VN2lc0Xlb0bwSeo3TAWAKhN8HN7h0bFa29jKfi5jHF5RFa/odUkznRymDEj2vCplHvNmO+ZT4iGByc+jtjr5WTbhkVjRUQG6maAZnlIP49D29g+UUkrd3t2r2fnFUgKTW7OvS3xnWrg6M2gzdQh8+vzF2VHQSjyUXbpmUchYbMLj8csNHRigW8BcWgBANEB4AIBogPAAANEA4QEAogHCAwBEA4QHAIgGCA8AEA0QHgAgGiA8AEA0QHgAgGiA8AAA0QDhAQCiAcIDAEQDhAcAiAYIDwAQDRAeACAaggpvdn5RHR4dZw/gpqXep2bmSg8UAACCCW9hacW6Iq5SSl1d36jl1fXSAwYAxEsw4V1d3+Qkd3J6pk5Oz7Tlzff2D0oPGgAQJ8Ef4kPPUBgdm9BeH5+czqS4trFVeuAAgPgI/hAfpVT24J7N7V11cnqWCW7nw8esetuOYJRS2dO1aHv77n32YBra+JO35M/yITbyvfw12+u2xz3S08TocYn8QTryyWZ0Tk3lt8UCAHATTHj80YwkvIWlFbW3f6Curm80IfJ9QiKFRPLjT+2Sj1x0Cc/0TNmff9nJnvRFr3PBFT3y8dPnL9nn8//L58vaHszNj+N6ehoAIE8w4W1u72bCOTk9y1VpZ+cXjVlgSJTSH4Ho8xBsl/Do/81kUbYHY8sy0WMPbdnm23fvrULDA7EBaI22ZHhX1zfq6vomG55CNzHvyW2X8Hi29VThJWkjY5PZo+mzffZL0geZSTknqf7AbqrO2t5b9oUDQDcSTHi8nWl2flGNjk2ok9MzpVSjZ3Z2fjHbZ3N7N3gw7RCePJYUGm0kJ9v7OZTdyQzum+9+VOcXl9lnyeosld1WzQUAuAk68FgKjjM6NqEOj44zQZycngUPplXh8fcUVUn5e0hQ/LWi99Pr/F9Z3rfv3ueO20r1GgCgE1R445PT6vbuXin1UK3d+fBRbW7vqp0PH3Pj9KoivPOLS613lNoZKR5bBjj8u/FcxsWzQFsWppTKPs/UwUHZn6kt0tb7CwDwI/hc2vHJ6SzTc23tmHXRivBkVVW+Loe5SJnJNj4pp0+fv2Ty4jLlZebZHH2e7Bm2bajeAuBP2xYPmJqZU5vbuxmU4d3e3bel/e65YKomAwDCgNVSKgbPCAEAYYHwKgJVhZHdAdA+IDwAQDRAeACAaIDwAADRAOEBAKIBwgMARAOEBwCIBggPABANEB4AIBogPABANEB4AIBogPAAANEA4QEAogHCAwBEA4QHAIiGYMJbXl1XJ6dnTdOOlY9jxrTJB3yXBV+B2rQaNQDtJpjwlFJqYWlFzc4vekOPbSz7JDwHaBl403MvTM/ALRsID5RBUOFNzcw19Z6pmTkILwA+D+b2eRpbJ4HwQBkEFd75xaUaHZvw2n90bML4UJtQZZEP33n77r327Fx5s8mf5fNl5XtluU2vU7ZF2Zd8utmnz1+0h28T9BBu0zFl2WU5edw//7KjPSPj5192cp8lzxE/Vivn0XUemq3SyocXyaXv6fpRKr9SdCtlB8+foMLb2z9Q5xeXhRfR+OS0Or+4VHv7B9oNFrIsJgnwm0JmRbYbN0nN2cjPv+xkD9I2PUZRPoLx0+cv2efx/8vMiz8G0hQbSZJ/DolAPjaSBEaSo/NO7yWx2s5bs+ex6Dw0IzxT1sqld35xqZ0Hfk5bvQbA8yeo8JK0rja3d9Xt3b2anV807jc7v6g9uaxdwjM917Xogdw24bXyEGzb4yBN7Wn857fv3ms3MscmARKclA1/sLf8nkxVXNM5afY8us6Dr/CKZGj6oyDfE6Ls4PkRXHhJWlcLSyvq9u5erW1safusbWyp27t7tbC0YnxfyLI0+3xal/CSNF+9cn22bT/KuGTVjFdrZdYl38t/N/y7cWumaIqLzgMdT4pVxtzKeXSdB1/hyXJIbI+y5OfuKWUHz5e2CC9JHzokzi8u1eHRsZqdX1SHR8fq/OIy17HRLcKTx5JCo41uONP7KbuToqEbmI4tq7OyqsrLSDf+23fvcxIwte/RZ7dLeK7z0AnhUXkhPGCibcJL0oeOib39A3Vyeqb29g+MHRpVEh5/j8/NQO8x3YDy/fQz/1eWzyUtV9WPji/fK6vAvH3Vt0rbzHksOg+drtJCeEDSVuG1831Fx2z2Yj+/uNR6MHkPskk6/KaTGRjPAnn7Gh1fdmgkaSP7M7U7mcbW8XJygdC+ssPC1RvMz9tThec6D0/ttOAdNj6dFhAekEB4Yh/abBka33iGIdv4uIBMw2+U0nsM6fiyJ9i28Z5Y3gtL29t37zPp0c+2c8X34eVs5Ty6zoNLeJ8+f8mVUR7LJGzabMNSmik7eP5owusdGHogHVK9ad3M4z7yfYdHx9ab07UdHh2XfhKqgK1dygeX0ORnyJs+VBkAKBsff9mFV6ur3lpdvUiH1Av6ObULT/4ONIcpw2kGnlG5XqefTR0hsloPQDfh4y9deAayNzz+LA9u+sCyA+8mqKoVIrOS1XK+mbK6oiojAN2Ej7+E8NiLBfLKbMr2g/AAAGXh4y9NeC8sb+irDZs/QAgPAADKwuSvvtqw5i+z8JjE+gdH1MtXb9TLV29y4jNleQAAUAbSX3214cxd/YMjKkltVVomu69ef62+ev21VXpJiqosAKB8uL9Idtxf/YMj+U6LF2mjGsvfwN9UVMUtO3AAQHxwf1HNVPorV6XtrdVV/6tGNVZa0iU9CA8AUBYv0iGVDA5r7pL+6knShhl7U92M8g026bl6bNGLCwB4KtInmVPSRlU2SeuqnznL5K8eGqiX1MxpoBSdSXqmjgtTASE8AEAruHzSm9ZVUhv28leP7I017WyyJU8ZufRchSz7pAEAuhdbUsV7Y4v81dPnaUbXAZvN9Mo+cQCA7sLWNGbqXLX566vXX6ueItmRzFwH5uNckOkBAEJjSpx8ZEfuoiF2Pa43aBJL66qPjctzSa+owGWfPABA9yEd0u/po2z/VyN24cm2OVMvrqt66ypw2ScOANB9mGaAeSVrj/5KanXV46rG8p1f8K5fy4f59N4CAECz+Mou17zG3NU7MJQXnjQjH+fSm7o/lA9byR0H4gMAWNCHmXDqhd4p8pdVeK4hJkla12xp+3DeK2IbnFz2yQUAVIusNilqlJlvaua5/dI9/Fjy+C9SJrz+wRGVCNnlhpjw1UMfXzM1HPLCmKRnCrTsEw4AKI9sSac0X6tMHqe72hzjqlFyl71Ihx46LV6+eqOSWt0oO5lqyiVYXNKTaWYuSFR3AQDpo/DEYySKms+ymuSrNzknmYTXS8Kjtd97U4fsRAeG3E8WSqacXHquggEA4qMhPLvs5CDiB9mNsIU/3fP4X6RDqofXk+mZFTYJyc4LmQ36ZnqQHQCAk3UuOMbZyayub3BEc1eRvzThkR2LCmWyMMeV6cnByZAdACBJdeElqUdv7GM1ltc4fT6jx/bQC2tPLdmTPQKNOjJInK4xekXT0AAA8UHJVNGqTVJ2pja/3LHZaz2ysc+0UyIOyjsvJLbqrVyEQE77AADECwmPP0PHJLu+wRG989TDX/z1Ht+Ha+vCq4uBgfznRkFs1VtOFqyg7C8AABAW032eLcvOVm2y1RD7H2WnDV8pqInK3/WE7jyQbYK+00CKOk+QCQLQ3dhqhj6ZnavDsxlHZAuABheeoWvZ1L2sVW/TvLkhPAC6G14LfDHw2BPLemT5M3QK58YafNW08NqS4Q2YpWfqudWllx98CNkB0L2YRnfQPe27pl1RZlc54fmsSupaTy9J0asLQDfCJ/Dz37vWs5PCS9Li6mwlhFe0hLxLeq2mrQCA6uAzqLjIC6b5+E8WXsjgelPz079DGL3sLxAA4I9coqlowRFbOx73Av3brBPaluElbB35ZoRX1CtT9pcHAGiOrA2v9tBmZ5uF5VMLLGrPKypLT9F4FnMAcgye3hNT+Izb1/mJwM5MzzK4EABQHdxeqKu+weGc4LKfH2dQyBEcMlGSqxn7zLTgZDMttIIXWFMb6SymmJlklwvs9RuVDOpPE7LNyugbHG58nigTsj8AqoN19lWtrj071iQ17gTXflk7f02vJvNyuLyQm2nhShPlbIoX4v+0UJ977aoRlQwOZwW1dUvnpff0QYcAgPCYvMAnEZiedpibcTU4nC0szJ1gG7/bT+8RwivyV09fjckkdUvEtgAo73kpnFVRG86Z2WcszsO0Er9yAgA6h8sJ3uPsHo/jGt1hyvSyNj3DvFqTv3p4tdG2RFR2AEtwSVosu0Zg5lUOeCprPTGe5Sz7AgAgJqSsfGSnO6GuZYTNOIEyPdcSd9xfPbKDgO+g7ewQnq0KqwXG2+JY4eRJ8vlrUFTOsi8AAGLCJDzeG1uUALlWP/HJEF++eqOXx+Gv7JkWXiOa0/yIaZfktMCyY4jgRM9Oktql51vOsi8AAGKCj71N0sagYlt2xjM7umfpaWX0f+1+tmR6uXZAKo/DXz1SVDaZ8MBIeKb6tSmzkz2sUp4S218HrdES4/QAqAS2yQa2oWd9teFsXF6u3c3iBJP0TD8X+auH7+wc/8YzsVrdz7i8gyKVDYj6elgypXX13vITZwoO4gOgc5AT+gqeLqZ1PhIDooc1FU1nad0pPVPtslGuvL96bG/SOhhq+czO9sHNbsYTODCk/tm/nFDvN35Rv52eqdu7+2z/27t79b/+94n6q7/5c+MEGurss/OL2ufMzi829SXybXN7t+WLYXRsQq1tbKkTQxyHR8dqeXXd+L7xyWmtDDsfPhr329ze1fa7ur4x7re2saXtNzUz5yy3PH+0LSytWN9zdX2T2//k9Mx6Xn23sm9oUIyrzc7U/t4sfAl4l1S59EyPn+ixvYEXMKtf1+o5Y8v3h7iYl/96XZODbbu6/v/q93/59uGEVFB4y6u+cdwYy8cFIsVBnF9c5o43Pjmd229v/yB7/fbuvrDsNuHt7R8Y95+amTPuD+HFAV/z0pTVPUV2SWpvTnP5iPoOyF99tWFdeCZr8tVLTIOKQwtveXW96WOYsqSyhRcijsOjY+e5Gh2b8D4fPvJ0nT/afDNI22e1spV9MwM/2tmJKIVHGaWrY4QnbdRE1uPT5ds/OFK4xBMdnG8kCt/gTVnC4dGxmpqZy97/H7/5zzkR3N7dq/F//5+0zyhTeK44+D7GOFh2VlQNtUlVZmFSjD7x2IRnKkeS1tXJ6VkWA99cwntKUwGoHp0SHj9uUTWau+vlqzeqJ0ndc19NnRqm16g31nZB+wRPNw1taxtb1pMp26729g8qIzxXHBJTHPSaFKc8Dq+m8k1mYa2cC/keHpMsBxeqlDiE9/zpRGehbQywqXPT5a/smRa2JdhtWV9uTM1jAeQF7XsSZCP9//m//894MvnPspF8dGyi9DY8Gcf5xWXhe0xxmMohMzeeTclskGeKUqo+cZiER9KTMfFMU34WhPf8sd2jzb7fuY9lWiu9bmrDM/mrx/TkIFeamGvfo/E0DuH5BC+rZ5RFuIQnb64/Lv2pdOHZ4nAh4+A9oTyz4qLh2R91QnAB8nY8fgyf9rskNQtv58PH7GcuZZ5pmt4X4ryC6mJ67GLW0Zk2hodY3+8pPNsCBbRwiUt0OeHZlnayDVsxLdEihVe08YDkTf/t9z9pJ0OekN6BIfXt9z/lbqCyhSfjaKX6yD9PHo9Ew39/eHSsklTv5KDfJakuQt9YTOJaWFrJfuZCpeOfnJ41JTyfDVKsPrYJBJRIhRBetq/jc2zj9Li/eriBTdVb66BiGejAP1a9afnCo9efi/BscfDhKCQfnl1S1ier2K5xdK4ynZyeaW11VL3mmebm9i6EFyH6FNGhXMbXW/T+JoWnf4a5Tc/mrx7+gS7hmbp7TbZtZuOBdEoUvrR604WOw9TDKn9H7XVSblMzc7kqNhVIzkMAAAmHSURBVK+KNlMmGvhMoiWh8nhn5xchPNAWbFKUnZlFK6zkHuLTzBPG+tjUMarWtnqxQnj2z+PZHM3OoE12IPAOkLWNLa3dzacDpahM/HhTM3Na2UzvQxseCIEUnmn4i88TEnuazexMY+/4h7Z6Qctexqc29pclvNBxJKkumdu7e62TQE454/seHh1rQrJNTzNhEx5vx+OfxcXGNwgPhMAlPPqdz+gS47AUV9udCdewFN+AZHXMNqKf4xrOUZVhKU+NI0l1ySilD+6VcfF95SBg27xdEzbh2WZ3cJnyDcID7cInWZOuMg48No1Wts1dk1PQnnJBywG7tnmbSZofdMt7JZO0WgOPnxJHkuYlSptpTqxNSEqZ59jacFWzTYsE8KyUbxAeCIFtnJ/tQWA2V/XwaRdyOgZN+iX6B0dU/yt9qgb/ANvUMl9CTclK0ucxtYxjkoxJjklqXlDAJ9N0nT9+DkwzPGyDpSE8EAKT8OQTznz81cMzNPl0796BxsBBuWZdktZz89T6B0eefEG3a/EAn41LsdlNxhoqDsIkGdv+sk1QKXeWacIlPBmb7AzhW4jFAyBGINvreAeF9JfWmZHqw+d6TMu26LLLL9LJl3jXClML8xd8YWnlScsqJWn5wgsVB2FajcQ2xMQUezPtd6Zj8Cpr0Vp9fIPwQDugrM30mstfPaELEupC9Vk40zWmrArCCxEHIavJRUNMpGiLFvwsOn9SyLyKLXuV+QbhgSoRXHgAAFBVIDwAQDRAeACAaIDwAADRAOEBAKIBwgMARAOEBwCIBggPABANEB4AIBogPABANEB4AIBogPAAANEA4QEAogHCAwBEA4QHAIgGCA8AEA0QHgAgGiA8AEA0QHgAgGiA8AAA0QDhAQCiAcIDAEQDhAcAiAYIDwAQDRAeACAaIDwAQDRAeACAaIDwAADRAOEBAKIBwgMARAOEBwCIBggPABANEB4AIBogPABANEB4AIBogPAAANEA4QEAogHCAwBEA4QHAIgGCA8AEA0QHgAgGiA8AEA0QHgAgGiA8AAA0QDhAQCioa3C6/YNcSLObtwQZ4nCK8PinS474qw+iDPeODkQXoCyI87qgzjjjZMD4QUoO+KsPogz3jg5EF6AsiPO6oM4442TA+EFKDvirD6IM944ORBegLIjzuqDOOONkwPhBSg74qw+iDPeODkQXoCyI87qgzjjjZMD4QUoO+KsPogz3jg5EF6AsiPO6oM4442TA+EFKDvirD6IM944ORBegLIjzuqDOOONkwPhBSg74qw+iDPeODkQXoCyI87qgzjjjZPT1cIbn5xWy6vranN7V61tbKnxyelSyh7LhYM4W2N8clotLK2oze1djdn5xWcT5+b2rkrSulpYWlFTM3OV+j45XSu8nQ8fldzopHe67BBB9SkjzqmZOXV4dKw2t3fVzoeP6vbuXiml1OHRsVpYWnk2cSZpXZ1fXKrZ+UV1dX0TNPEIXfauFN7C0kpOdhBe9eOcmplTV9c36vbuXi2vrj/bOJP0Iau7vbvXsrjZ+UWllFJX1zdqdGziWcRJLK+uq739A3V+cammZubUyemZ2vnwUU3NzKmdDx/V8up60O88KuHt7R9kkju/uFQLSytqdn6xq6u0RTfA8uq6Ojk9yy6k0bEJNT45/eTqQyfjPDk9y76327v7tlwbVYgzSRvXqO0ctEv4ZQlvdGxCKaXUzoePanN7Vy0srWRZ38npWVaNLyNOTlcKj984z6Vq4KoKbG7v5rLZ27v77K9pt8TJmyHOLy7b8r1VIc4kbVyj8g8ZfZchb/4y4+SQ4Kh98uT0DMILARdeOxp+O33hTM3MZRIzCZzafkzSe2qm0OkbZG1jS61tbLWtSleVOG2ZHDXH8N9T51s3xiljhvACHWt0bELNzi+q2flFdX5xmd30axtb2e9D3kSdvnC41E5Oz9Ty6noWj23b+fCxq+Icn5zOvivKTPnv6I8X9WqG/E47/X0ur64rpfKZLLVz8d+RFLoxTg4Jbm1jSx0eHaur65us3fb84hLCawZq8HVtIbO9Tl44o2MT2Q3SzBYiK+hknLxqTje4rK6vbWxpP4fq4OhknARV4elm39s/UIdHx5nExyens99fXd8EyYLKiJOYmpnLYltYWsmaaGioSllt7JxnJbyyyv7Uz6YG32a3EILvZJw+wrNtT71ZOhmn/G55rYR/Z9SbeX5xqW7v7rNOqW6Kc3Z+Ue18+JiVvQjque3kdcvpGuHRxXFyeqZV/84vLoNcKGVfOKZxha4tVC9n1YR3eHScVYv41s2ZT5I22vT29g9yr3VrlZaG3jS73d7dP7mpotWyd43wTBePUs+j04LY3N71voBMN07V4/QRHr8R+Pd8eHTcNXFypmbm1PLqujo8Os5iOb+41OKksWrd9n0uLK1oopa1MBK5aXvqfdtq2SG8Clw4prhc2+3dfbD2kE7G6SM82/notqrewtKKurq+UXv7B1mHDI1NCxFPFeKk7446K5R6kPnV9Y26ur7Jqrsk+739g+w7hfCa4LkKb3Rswkt6ZY1Yh/D8MA094d8xSa8dc07LFh4NS6GhKTTHnZoqpmbmgvTYQnhdfOFI+EwSuYWqypYRZyzCI6HZXichdvviAT7C498zZbo0Lq9TcXIgvApcOHSR7Hz4qK6ub4yia9f8UwgvfJzUDmtrmJ+dX2zb1LoqC4+mR97e3au1ja2OxcmB8Cpw4STpw01A47G45E5Oz9o6MwHCCx8nH38n21qp2eI5TIk0CY86aUh4NO97b/9ALa+uZ6Mt0IbXBM9ReGXRyTjlAgjyd1JqfHzXU3sxO/198uWgeHzUlvUcvk+++gs1w9CqKSenZ2pv/yBbTIBqKDTcCMJrgqmZubZMJyvrwikTxNneOPm0uU7MH+5knKNjEy2NwwuxcERUwusEEAHi7EY6HSdNi5SrOdvgc8Q7FScHwqvIhYM4ESfibE+cHAgvQNkRZ/VBnPHGyYHwApQdcVYfxBlvnBwIL0DZEWf1QZzxxsmB8AKUHXFWH8QZb5wcCC9A2RFn9UGc8cbJgfAClB1xVh/EGW+cHAgvQNkRZ/VBnPHGyYHwApQdcVYfxBlvnBwIL0DZEWf1QZzxxsmB8AKUHXFWH8QZb5wcCC9A2RFn9UGc8cbJgfAClB1xVh/EGW+cnLYLr5s3xIk4u3FDnCUJDwAAqgSEBwCIBggPABANEB4AIBogPABANEB4AIBogPAAANEA4QEAogHCAwBEwz8AYBaT9D4GwpYAAAAASUVORK5CYII=;" parent="1" vertex="1">
          <mxGeometry x="540" y="1190" width="250" height="246.04" as="geometry" />
        </mxCell>
        <mxCell id="PbtdcRw7RCsZxsqq4dKP-62" value="" style="shape=image;verticalLabelPosition=bottom;labelBackgroundColor=#ffffff;verticalAlign=top;aspect=fixed;imageAspect=0;image=data:image/png,iVBORw0KGgoAAAANSUhEUgAAAEkAAAB1CAYAAAACy8wKAAACTElEQVR4nO3YMY6qUBSAYXblNmYTbMEFULgCWwvLaWho6bSimdBAiIWJJL6EaOK8BPIiIWcKAmHU0Tcj4oH5b/L35svleu41LNcQup7x7B/Qh0ACCSSQNAUSSCCBpCmQQAIJJE2BBBJIIGkKJJBAAklTIIEEEkiaAgkkkEDSFEgggQSSpkACCSSQNAUSSCCBpCmQQAIJJE2BBBJIIGkKJO1IM28ki/VEwsT+lL+dixOYT8d5KpK7GssujeTWyo57CRNbZt7o9yC9+i//hXO68iITL54OH8kJTMmL7NtAzeVv58NFmnkjyY77u4CqtVhPhokUJnYrQCLlOdXEHwzS+7+4NSQREXc1Fss1ZJdGneysTpDaXmFi10gi8vBDvZdIFUqFlBeZvPov/Ub68/etVaRq0Gz+GWwOy34jLdaT1oB2aSSWW44UzdU80HuJZLmGbA7Lu4HyIqt30aXd2XukmTe667NrAl3amXmR9R+p6icz0y6N6oP5q8m992fST5Cy4142h2U9E1muIV48/fJq88hXg06RvHh6tkOcwBQnMMVdjetOJ2knMK9ejAcxJ1lueSaJlGfH6Q65lBOY4m/nN6f1Ll4HOt1J1+5aXjz99sHe1WVX3fPtYj2RzWF5toPyIjt7Sahmpl+HdKswsT8d3o/8V+stkuWWn231ee7S6OFPJr1E6jqQQAIJJE2BBBJIIGkKJJBAAklTIIEEEkiaAgkkkEDSFEgggQSSpkACCSSQNAUSSCCBpCmQQAIJJE2BBBJIIGkKJJBAAklTH/CJCr9y/Am4AAAAAElFTkSuQmCC;" parent="1" vertex="1">
          <mxGeometry x="160" y="1480" width="62.39" height="100" as="geometry" />
        </mxCell>
        <mxCell id="PbtdcRw7RCsZxsqq4dKP-63" value="" style="shape=image;verticalLabelPosition=bottom;labelBackgroundColor=#ffffff;verticalAlign=top;aspect=fixed;imageAspect=0;image=data:image/png,iVBORw0KGgoAAAANSUhEUgAAAEsAAAA3CAYAAABErrdQAAABoUlEQVR4nO3YvYqDQBQFYN/K1/Al8go+gEWewNYipY1NqsB02WqaME0kSAisYEAibAKRkEHuVob9ya4mhLn+nAOnsxg+xmHmWp6wCG2u1pos7kX0pcACFrDYCyxgAYu9wAIWsNgLLGABi73A6iuWSFxS2YxUNqP5esK+nk5izdcTKq8F/czxknYKjR1LJO4vpK/RVdkZMFasQNqkq/JfLCKi8lqwQ7FjydRvhKqz3E3HjRXnUWusOI+ABayWVdmsNZZM/XFjhcppBaWrkgJpjxvLE+1+xS7sKlasQNokErcRrIaqvx0d1rZY3DDqW3qoHIrziA7nDR3OG4rziELlkEjcb7f7bbEYD9b7x9vdHbQ/rUimPonEJZG4JFOfDufN3W+5wIxiNT1tHkmonGFj/bWrngnH7jKKdW+y8GyOl3TYWK/OYLFeeV7VMX1u9RrL9N2r11imh4LGsAJpvxRKV6VRKKNYnnhsJNMUjvei8Rv8cje9PWme6f60Ypuask8d+lRgAQtY7AUWsIDFXmABC1jsBRawgMVeYAELWOwF1oNYn/D+o+5DJC3vAAAAAElFTkSuQmCC;" parent="1" vertex="1">
          <mxGeometry x="157.45" y="1270" width="68.18" height="50" as="geometry" />
        </mxCell>
        <mxCell id="PbtdcRw7RCsZxsqq4dKP-66" value="" style="shape=image;verticalLabelPosition=bottom;labelBackgroundColor=#ffffff;verticalAlign=top;aspect=fixed;imageAspect=0;image=data:image/png,iVBORw0KGgoAAAANSUhEUgAAAEgAAAA3CAYAAACvmQxTAAABm0lEQVRoge3XsWqDUBQGYN/K1/Al8gp9gDxD1gwZXbpkCjg6uQSXFClZFCIUBQ1EJCJ/h3Av1ibFtN7q1V/4h0BySL7cc/QYS8cA8zjG0F9g7CEQgQhEIAKNOAQiEIEIRKARh0AEIhCBCDTiEIhAmgD5pw3ePl6VxD9t9AY6pjuovo7pTl8gAKjqAs77i5JUdQEA+gOpql9cU/2BAMD2rd5r274l62sPFJ/3vddOLsF0gAAgzNze6oaZ+6W21kDFNZXDND7vsfbMX9dbeybi817OtknMoOQSwPYt5GUkwbaHxdO1toeFBMnLCLZvyTbTHkj8+6I1qrqAF6061/GilTyFYebKUzgpoOaPfeYhr/mw2UadJNDSubWLOBF5Gd2dS2vPlG1Z1cXdtpwsUBugPZfa8+bRYJ80kEjzlh1m7rfXP312FkBL57bxixMjWqrLpj4bIBGxhHZ9/+yAng2B5gCUl5Gy+uIuqC1Qc+NWdak6of8CJJbL5BIoyV+X38GBdA6BCEQgAhFoxCEQgQhEIAKNOAQiEIEINGQ+Ac+uJeNEc9jEAAAAAElFTkSuQmCC;" parent="1" vertex="1">
          <mxGeometry x="160" y="1600" width="65.45" height="50" as="geometry" />
        </mxCell>
        <mxCell id="PbtdcRw7RCsZxsqq4dKP-67" value="" style="shape=image;verticalLabelPosition=bottom;labelBackgroundColor=#ffffff;verticalAlign=top;aspect=fixed;imageAspect=0;image=data:image/png,iVBORw0KGgoAAAANSUhEUgAAAFIAAABMCAYAAAD+8OBwAAAAAXNSR0IArs4c6QAAAARnQU1BAACxjwv8YQUAAAAJcEhZcwAADsMAAA7DAcdvqGQAAASzSURBVHhe7ZzvayJHGMf7t/hvzOt9G3wVfHVyBCp9dRGkIMdh4AiBhnBI6cHti4JSjktfCBbyYskL20BrhKAvvHB4CS1K7io5idcTwdaFb2d3Z60bp9Ho7I/kngc+BHfdmezH2ZnZ2Zn9IhaLgVgdEqkIEqmIOyGSrT3AxsaGYB2a5DthE2GRGtKFKtofx5iJ8Ue0qwWkNdlx4RBNkSyL0vkApvD2vzH8A6Usk6cRMBEUmYDeHApTC4TZhREBmZETmTnozi+J1+PSQEaSVpBESyTL42Qk5NwqTLSKcXmaAREtkXs1LOWRh9nUwWRpBkSkRGaMS6FliQj58iaRioiUyEe8oVk6SOQUq9SRjefyNAMiWiJjOVT6wsytYoSTfLh9yYiJjCHx8uzW/UizU0JKklaQRE6kfWfTWOD20I1hE3pClk6wREwkw9oDa3QngZ3KO0iGKzwx/lBFnktka+tYY7L0giMaIrU0CvUuRnYxNHFV+w5JLkZLF1Bt98V2N0yM+m1UC19zeQzJ3SN0xXGj7mv8+EST5+Ez4YtM6GgMZi9kc3COygtLlvM9bd07Fql9+QyGdIRoiKae8OYRACGLTKHUmVXhifEQf70/Q71edzhtozecc9GbXRxkZPn5R6giWf5k6X7jvDBbRcQlefpFiCLjKLbmlMaVooPSQ1m+/hCeSKaj6adHHmcvgxtaC0/kCreDi0aQt42hiXxY6ojT9TG6B3gkydsPQhO50pDZojGqYU+Stx+EJlJvipP1NfjtoyRvPyCRiiCRighN5NOjT+JkfYzPoY4MovszOskH9mQxPJGL3GevEgHfb4cokpPIo3blg0xzgEbAI0DhirRgSWwVDBy7ozsrcmwUsJUM/vlN+CLvCSRSESRSESRSESRSESRSESRSESRSESRSESRSESRSESRSESRSESRSESRSESRSESRSESRSESRSEf6LnKx47aOS8+6bnf/jzA//OT/94Eq8SaA3cOaS2zN4X6O8m5w8anXSuYRx7amhMwmhCf2m2QhN3XPMsvguMl5sTeZ5X3/O7Ajo4ZdvxPsqHu+jZa15N1soxq3vuEtFTAzOKyhsb2Jzex/1D9bU5zHeHWTt9OaK1NbF+zA28OqNte0NXrnvyFhXM3nfZ5EplC/4/90/xvEZ/zsR5CAT4NmWq/BybC2l0ZEQ+21YFoa1lEGkN1fknG0q8FekEHFpZCYlc3oW7YwA7QkOLUH9CnL8szOtZVaQBeNG3PTuuUiGvF05XqCc4p/jRdhTxi/Kk+VujoBr8XcXv32btPffeNIZg6tzfqT7LdIV9+chtuz66Cv8cPoP3/Bfo+MImKojN7dRtitJ5ztUIjkpu3KUh9voSAVMlbRF60j2/amVLH7fn2rt2Q5+tX6H3iGyU8feMZFiufCnIzz1bBeNj6eRkJVIk/dKrGkncTyv39Bq/8RlW+myPdTsw67Q2N/G5uMXqNirwkx0Sqmp/O+YSHchUr+Sm9nnNjoX5ZQQ6Y3xsIe3xs5UCZzfj7RgyV0Yb3twFoXx/ujgPeqF9Mzrv+7cpf25QSIVQSIVQSIVQSIVQSIVQSIVQSIVQSIVQSIVQSIVQSIVQSKVEMO/1DKyCYAHJKsAAAAASUVORK5CYII=;" parent="1" vertex="1">
          <mxGeometry x="11.120000000000001" y="182" width="82" height="76" as="geometry" />
        </mxCell>
        <mxCell id="PbtdcRw7RCsZxsqq4dKP-68" value="" style="shape=image;verticalLabelPosition=bottom;labelBackgroundColor=#ffffff;verticalAlign=top;aspect=fixed;imageAspect=0;image=data:image/png,iVBORw0KGgoAAAANSUhEUgAAAFoAAABVCAYAAADJ/vPXAAAAAXNSR0IArs4c6QAAAARnQU1BAACxjwv8YQUAAAAJcEhZcwAADsMAAA7DAcdvqGQAAAXLSURBVHhe7ZzBS+N4FMf3b+m/kXNPe+lp6K0MHsqCsJaVhTKKgojMiAvCKIwLZSqD2D0IGZhD1kOHuVRB0kNbB0fZoqtuUVG0BMo28N1ffknaxIm1zrQvWX0PPmjaNL58mry8mt+vP8RiMTDDh0UTwaKJYNFEsGgiWDQRLJoIFk0EiyaCRRPBookITXRyooCPtUNcXF/jmpwLHNY+Ip+JB+Y2DEIRnVguw0AEwmxCX04E5jhoQhD9HBtHzo5GIc40jAfmOVhCEL2CirOP0YgKVgLzHCwhiF7AdsvZxyjEzSfMBOY5WEIQrWBhOxIVWoZRehmQ4+AJ5WIYS4ryEQXXrRpyyYD8hkA4ogVKVkPDdHY4jDAvsb2YDMxtGIQm2iI5V8RJ29lxymifoDhHJ9kiBNHjyGaV7nJyDlqdro4YdQ3zqe7fV7LZR9zeGXWok95PZXFkCrtoDrOUiA8nu4UM4p5c4pMq6sajbe/cPtpAXZtHSuk+p6SWUDoffC1pn+vIjXrOIiWFea3ufDp99KLtMC/L/v85+CR8bwS8maM56L4384mIliFO6wNtDknPevFMAbvfUUvM5sFX5WlSPQgoT09JtBPt8xKWPBeqmDKKnH6OhxWTNs71HEZ9JWkexTvbmycoWobob8t570VLQWq+zzbQatvmU1A6rxUX2XwZlz1PjKcqWoaJ5oGGOe+nNqsNPGiKZ4IiYP34JNQ71/fGkxbtROARqqPR6uozWw3o33oGyGDRToiaW1rydQ6W8GcjIxgZeebri62OZan00JrOon3xVRt4i3gmj3LvYnxHsOiAMNFqVKHlZzEmj+gxzOY1VButPmrxXcGiiYJFEwWLJgoWTRQsmigereg01GNnH6MQxyrSgXkOlhBER+B+oRtmA5r3bs8QCUW0hZKaRl7bgq7robCl5THt/U/hkAlN9FODRRPBoolg0USwaCJYNBEsmggWTQSLJoJFE8GiiWDRRLBoIlg0ESyaCBZNBIsmgkUTwaKJGLhoa3S9Wj1FUw6tbcO4PkVV9cwjiWeQLx3iommPl2sb1zitqr4paePamXXnFA0t6xmyG8OKHKdgDQ/oNWTBHT6gYHHHnnR+VZzqbKODm4dhjT010Wpe4LCURybez7YfzkBFK9kP9rhk4wSlwizGxmZRkFMjTJy8/1lOTS5bk0isOSvFPGbHxjBb0CHn7rRP8MG5I22LFnHrLnVXtDtsV7D+Wa76ed1ZdofyJlax595pb+1g0Tvst5PHJXa1N3gx8gJvivb8FkN/h1/u2/Y3MEDRz/FH3Ur+CBtp7+MKRqcn5ESgqeKVSNtAZcU/a9UdfmDurSIhljuirTjbRNaR1BXdfW3MflBs0/OYIC0Hj1xha2tf/DSxt9r9ApSXJWvOl4HtBf9d8OTEtG/uy13b/hYGJzqxBmuXWjuLvtO9yww+3YgVAr+IRBESrcNvH2sJV/QFapWGLC/G9oLcZv+ipyDfU+tvuUf2/pp8Ezt59DNwJpKixzVYes608eDn3bpaWQl4zpV7Bm3c83s2C02OtDFQXk70LVpZ3IFVnY/VtFhOYFWaPoYqz7TeefiIpGjniDbFDgzmiLalx9IbOJKuK6j8JX7eK9oV+w82p+3a+tO7Gv4Vj9gXxV553CKSojs7eIZN3zArUaNfvZK172E12hEtlpNr+7KE2HGP6LQqjt07wrko2nm0UMv580hO/IYJ78yuaIruCrO7inW8faui9Lc9Be38z1/FUb8MvUfX8d4Re1t0LJZEruZ+P1Bv0bbEG3ya8awjsC+OzkWx88Us1uRPVeS5Dq1qTzJqV3/Hj+7roiraQhl9jeKXK7gz1NrGKfSC3XXIdfruo72iBR05PUQri5Ct81URU951LNyLonsRTE6I1vMUso0WYbau8KX4+n/QdTA9YdFEsGgiWDQRLJoIFk0EiyaCRRPBoolg0USwaCJYNBEsmggWTQSLJoJFE8GiSYjhP1QHiZ5LRbw1AAAAAElFTkSuQmCC;" parent="1" vertex="1">
          <mxGeometry x="19" y="345" width="68.83" height="65" as="geometry" />
        </mxCell>
        <mxCell id="PbtdcRw7RCsZxsqq4dKP-69" value="" style="shape=image;verticalLabelPosition=bottom;labelBackgroundColor=#ffffff;verticalAlign=top;aspect=fixed;imageAspect=0;image=data:image/png,iVBORw0KGgoAAAANSUhEUgAAAFEAAABFCAYAAAAyyAq7AAAAAXNSR0IArs4c6QAAAARnQU1BAACxjwv8YQUAAAAJcEhZcwAADsMAAA7DAcdvqGQAAARSSURBVHhe7Zu/a+NIHMXzj6h3v7hb1J1hcZPGxe0WbtKYNMuCwQd34OKysLgwLD4w7F2pK1K4E8RbHARCLkUCPoQ5MFusgyHrDSErMASM4N2MLNn68bWjyY5COH8ffAq9kSb282i+UkbaEQLz3ZAmowZpMmqQ5pPCrFu4uLzF7eUFrLqZai/+/BGXt6J9yRQXv+2m9ssR0nwiGKh0B3A9RDTDyKqhENmv2rsK2iI6b0X6yR3SfAKYqPcniOW3lAf3rI2SsdiXQ6Qo1GCNZkEagTwXbsKaj23UTQ4xhVE6wPF1fPx57gDdioEds0m29f+eBlsRbWuIZt3GeB6EEGg+7qFWEOFWfsW7WgE7RgVdJzEkKW1fiFQB8XB9fODPe2bzGP4AFKf0oFuBIedLe4xE3nFtV4hUAQkrcAE1ayS2ovIw6ddhiuBL7bNE8BFtTYhkAZmgL68F5Wk7cNdUZxHzyPJP80LNQrILX9sQ4uYCUoednBwJee4Z2iWD7AszZ9EX8bdzgDRzZVMBWTuy1mk+hh2O3GTB8a5xfFAScyj9OTRCmjmxqYCIOe4gKCDKmsFZW3DSdzg5QJo5sKmAZKi292r1Y1A/lDvoohLc4eQAaernxR8YRb9YtIBkue7LqPXTwgSHPxKfSw+kmQtm69y/XAkLCFkQNCjd/wzn7VznRtLMCXGqNX7BKzFS5DZ5z6tL4SWOGOmNhpwvo59DO6T5KDxKiI8DaT4KHKIGsoQ4PWqgXC7H+fBP0LpBHOJKV71q+lhRoO4Vh7gSh3gPHKIGOEQNcIga4BA1YOwdpv4lltSDQvRcnL4tpo/LD9Jk1CBNRg3SZNQgTUYN0mTUIE1GDdJk1CBNRg3SZNQgTUYN0mTUIE1GDdJk1CBNRg3SZNQgTUYN0mTUIE1GDdJk1CBNRg3SZNQgTUYN0tRIFf7y8lUP1Zjfgr/wGV0fLrzC+78+Yere+c92z2e3uLyw8FMpfJUi6Eu0Op3kkug+7BvZJrtceGvXtfWvSZOmRjKGaLZwJp9W91z8a7/Hm5cv8eb3U3yR69LzMQ73ZJBhiEI3NvYj/RU7zvKh+niIUxw1Eo/mPS8sj9MEaWokW4j7thxGM7EZf7Pe2OthIrN1OihGQ8QdTprhCN2F9TmwheIhXqFXXfWXE6SpkSwhvkb/G7WPxEDrXI6xIbrFoK/pEEOZ+WcLu2Ifo3kiIhWnuDMU5v85xHXyQyTmxwirMFY/SNMfejfovy6hOxQh352g2fZ7SYSYVtiuEdLUSDh6jtCIzkvlD/AfGn7ISJT7FTtw5Gn+9auIUlrV5TM6982Jz4O3FzRCmhqJfPGY/x1zYtDX4hghz0GnKPYnQ9yaOVFsF9/idEN1/tMPItHXrgV5Ut+dNBfvqWQcieUfnul+r4U0NZIxREnW68RUXwFkiITWHf9wSJNRgzQZNUiTUYM0GTVIk1GDNBk1SJNRgzQZNUiTycwO/gNMQsGIj5wLFAAAAABJRU5ErkJggg==;" parent="1" vertex="1">
          <mxGeometry x="19" y="105.5" width="81" height="69" as="geometry" />
        </mxCell>
        <mxCell id="PbtdcRw7RCsZxsqq4dKP-70" value="" style="shape=image;verticalLabelPosition=bottom;labelBackgroundColor=#ffffff;verticalAlign=top;aspect=fixed;imageAspect=0;image=data:image/png,iVBORw0KGgoAAAANSUhEUgAAAFkAAAAuCAYAAABDLLXWAAAAAXNSR0IArs4c6QAAAARnQU1BAACxjwv8YQUAAAAJcEhZcwAADsMAAA7DAcdvqGQAAAQFSURBVHhe7Zk/a9tAGIf7Wfw1NGstnYqmihJwoWRowIsInoLrwbiZQqiHQDqYpkNB0AzCQ4yX1os9OC64NjHunyASk9Q1AhcLfj0psi3J5ySm6JVa7oVniO90ih6/957v9CCVSkEQLUIyAUIyAUIyAUIyAUIyAUIyAcmXLD/GxsaGy2OZ0/4PkCzJTOj2Kx3V9gDDkYUpeDGFNRpi0K5Cf7X9T4hPhGQ5vQv91MTE9jyuE/YE5qmO3bTMHTsJxCpZUgtM7uWKjPViamE0GmF85zcwxSWTXVAl7r3iJCbJMrYOm7i6xZt91cRRLg15ds2jMrpe261hX6F5uLW4LgHQS5Y2Uf48xsKvjXGvg2+/vT9ZWJ0yNiWvP6vTL3L7eFv7ionXvhS/L9D/Fhrzs2+MmKGVrORRM33pO73Exz0VypvOQtB1DTuuHBlZvYfxLdm+CBudNwrUvY+49NUe26whr4T+hxigkyxnUfEJXgiQUGrNPndkPXL7Z45NX2beHXarBIldJ6l7qPvqkG1WkI35FwiNZEmD4RNs9d9Dm0/lHdR+eQ1o48D9vIj6ytqwIn6xGeC73/u+5TU4og3f/eghkCxBq1x4j8t74BJaXhuGFWjOZxkDiyvuGy2U5mMyQl/sRUVzM31xXzoilyzt1HDtPSgsJmKpRvokM7UnLzew/WGwVqm4iZBkB4WNPU/oa9R24vl5F7HkZ9C/e89omzA03kNqqAy9Pn8Ts1kQQtIqi1nxXcczTp+oiViyL0vPjqBw+6RQXLsAL8ekXuSOnUopODrzOvGynYCIJT/Fu/5s4ltolRROH5ZtxTpr/ZuwUC/yS4FSas3Htvvv8JTTJ2qiX/gyx5ivPytLhoJyd/0qPAu7W+bOEkkzAvc+ziz3oSB6yYzAb17u4scILFJrxL3Gs2EeZ5b7EEEi2cnUks+gPW7igHOQI22W0VlHtNVBeZMzjnqApm+raLGNyqr1gAIiyYzQBoHtSKBnOceTbOtt9PznELyY4ucXnbuTk7M6grfxb3zigU6yg3M4FEhVC32jAJUjQU7ncFRtYzAcuUedLuddfDIOkeOdHUsqCkY/sIAGDppihFayi4L8yY/AGbI97sHY9R1rroWM9K6BXuAkaYofJ/lYS4SfGCTfoOTDYpjsiYlT4zW2nzy8Ywss4eHzHA6NU5ihw3z3CyuosW2hecQm2cWd4iuOM503IsMB2o0GGnNuyofFe5Vij9FbUXriJl7JM+QtvOZk5X1ilv1bCX6hmgzJc27KwL5eRaN7zha78Btr5031COfdBqr6PnLP7yorySBhkv9PhGQChGQChGQChGQChGQChGQChGQChGQChGQChGQChGQChGQChGQChOTISeEPKErYjuUrUWAAAAAASUVORK5CYII=;" parent="1" vertex="1">
          <mxGeometry x="11.560000000000002" y="260" width="89" height="46" as="geometry" />
        </mxCell>
        <mxCell id="50PbLL9UkYOBZdIO85tb-1" value="Logo du site" style="text;html=1;strokeColor=none;fillColor=none;align=center;verticalAlign=middle;whiteSpace=wrap;rounded=0;fontSize=18;" vertex="1" parent="1">
          <mxGeometry x="405" y="250" width="140" height="40" as="geometry" />
        </mxCell>
        <mxCell id="50PbLL9UkYOBZdIO85tb-6" value="&lt;h1 style=&quot;font-size: 25px&quot;&gt;&lt;font style=&quot;font-size: 25px&quot;&gt;Lorem ipsum dolor sit amet, consectetur adipisicing elit, sed do eiusmod tempor incididunt ut labore et dolore magna aliqua.&lt;/font&gt;&lt;/h1&gt;" style="text;html=1;strokeColor=none;fillColor=none;spacing=5;spacingTop=-20;whiteSpace=wrap;overflow=hidden;rounded=0;fontSize=18;fontColor=#FFFFFF;" vertex="1" parent="1">
          <mxGeometry x="170" y="505" width="590" height="115" as="geometry" />
        </mxCell>
        <mxCell id="50PbLL9UkYOBZdIO85tb-8" value="&lt;h1 style=&quot;font-size: 12px&quot;&gt;&lt;font style=&quot;font-size: 12px&quot;&gt;Lorem ipsum dolor sit amet, consectetur adipisicing elit, sed do eiusmod tempor incididunt ut labore et dolore magna aliqua.&lt;/font&gt;&lt;/h1&gt;" style="text;html=1;strokeColor=none;fillColor=none;spacing=5;spacingTop=-20;whiteSpace=wrap;overflow=hidden;rounded=0;fontSize=18;fontColor=#FFFFFF;" vertex="1" parent="1">
          <mxGeometry x="190" y="1005" width="150" height="115" as="geometry" />
        </mxCell>
        <mxCell id="50PbLL9UkYOBZdIO85tb-9" value="&lt;h1 style=&quot;font-size: 12px&quot;&gt;&lt;font style=&quot;font-size: 12px&quot;&gt;Lorem ipsum dolor sit amet, consectetur adipisicing elit, sed do eiusmod tempor incididunt ut labore et dolore magna aliqua.&lt;/font&gt;&lt;/h1&gt;" style="text;html=1;strokeColor=none;fillColor=none;spacing=5;spacingTop=-20;whiteSpace=wrap;overflow=hidden;rounded=0;fontSize=18;fontColor=#FFFFFF;" vertex="1" parent="1">
          <mxGeometry x="370" y="1002.5" width="150" height="115" as="geometry" />
        </mxCell>
        <mxCell id="50PbLL9UkYOBZdIO85tb-10" value="&lt;h1 style=&quot;font-size: 12px&quot;&gt;&lt;font style=&quot;font-size: 12px&quot;&gt;Lorem ipsum dolor sit amet, consectetur adipisicing elit, sed do eiusmod tempor incididunt ut labore et dolore magna aliqua.&lt;/font&gt;&lt;/h1&gt;" style="text;html=1;strokeColor=none;fillColor=none;spacing=5;spacingTop=-20;whiteSpace=wrap;overflow=hidden;rounded=0;fontSize=18;fontColor=#FFFFFF;" vertex="1" parent="1">
          <mxGeometry x="560" y="1000" width="150" height="115" as="geometry" />
        </mxCell>
        <mxCell id="50PbLL9UkYOBZdIO85tb-11" value="" style="group" vertex="1" connectable="0" parent="1">
          <mxGeometry x="155.64" y="1350" width="274.36" height="53" as="geometry" />
        </mxCell>
        <mxCell id="PbtdcRw7RCsZxsqq4dKP-52" value="&amp;nbsp;Email" style="rounded=0;whiteSpace=wrap;html=1;fontSize=23;align=left;" parent="50PbLL9UkYOBZdIO85tb-11" vertex="1">
          <mxGeometry x="64.36000000000001" width="210" height="50" as="geometry" />
        </mxCell>
        <mxCell id="PbtdcRw7RCsZxsqq4dKP-64" value="" style="shape=image;verticalLabelPosition=bottom;labelBackgroundColor=#ffffff;verticalAlign=top;aspect=fixed;imageAspect=0;image=data:image/png,iVBORw0KGgoAAAANSUhEUgAAAEQAAAA4CAYAAABE814IAAABd0lEQVRoge3XMYqDQBgF4Fxoa7s9g5fwCjlAzpDWIqWNTaqAZSobsVEkpIkQQSIkgoNE5G2xxJiQlZUMrDP7hAcizI/zMfM7zhbeDMw9s79+gamFIAQhCEEIQhCCEIQgEwlBCEIQgkwaZB1ZyMoApyqRkqwMsI4sdUHEtUDTCmkgTSsgroW6IAAQ5660enHuAoDaIJc6lVbvVCXqgwCAt5u/Xcvbzbt6yoM0rXirGa4jC00r9ADJygBNK9C0An66HF3DT5fd+KwM1AeJcxdOaOJSpwCAw3n76/GH87brQ05o6tFU+1+Z/gRt3/hxnO0bLwG1A1l431tgqK/0+8XzFtMS5HnS4XHVPQ+Pq0EsbUEW3uO2uNTpw70Tmi/HaA3SXxW3o3l/tfxbkDEhiI4g+2Ijrd6+2KgNcvsZk3mdqkRdENs3EOeu1Awd6CYPoloIQhCCEIQgBCEIQQgykRCEIAQhCEEIQhCCEGQiIQhBCDIO5OPTBHPPFw/8RxuYuK67AAAAAElFTkSuQmCC;" parent="50PbLL9UkYOBZdIO85tb-11" vertex="1">
          <mxGeometry width="64.36" height="53" as="geometry" />
        </mxCell>
        <mxCell id="50PbLL9UkYOBZdIO85tb-12" value="" style="group" vertex="1" connectable="0" parent="1">
          <mxGeometry x="160" y="1418.5" width="270" height="45.430000000000064" as="geometry" />
        </mxCell>
        <mxCell id="PbtdcRw7RCsZxsqq4dKP-54" value="Subject" style="rounded=0;whiteSpace=wrap;html=1;fontSize=23;align=left;" parent="50PbLL9UkYOBZdIO85tb-12" vertex="1">
          <mxGeometry x="60" y="2.7200000000000273" width="210" height="40" as="geometry" />
        </mxCell>
        <mxCell id="PbtdcRw7RCsZxsqq4dKP-65" value="" style="shape=image;verticalLabelPosition=bottom;labelBackgroundColor=#ffffff;verticalAlign=top;aspect=fixed;imageAspect=0;image=data:image/png,iVBORw0KGgoAAAANSUhEUgAAAEYAAAA1CAYAAAD8mJ3rAAABjklEQVRoge3ZMWrDQBAFUN1K1/AlcgUdYAufwK2KlGrcpDJsp1RqgpoYY4wgggSMBXbAwkSIn8IYRGRHFlg7A/oDv18eq9nZlWesB6YdT3oBWkMYwhCGMIQhjJ4QhjCEIQxhCKMnKmDCxBdfg0qYj/0rNsVCFZAKmDibAgCqukScTcXXowbGWA/N2hQL8fWogAkTH39ruZ0TZrmdt2AAwK6D8cIk+ewqCgDsjqtxwtzaKc2K0sl4YMLEx9f3WycKALFTyjlMmPg4nPK7UAC5JuwcZlMs7kYZDUyUTnqhAHInk1OY9PO5F0pVlyIozmHuOYWaJXk9UAuT5DMxFOcw/w1zzc9HGsU5TFfzLX8KvLw/iaM4hzHWuznYHU75uN9jonSCqi5bMJIXRhUwxl7vNdIQKmCMPb/aNXeONIQaGGPPn9XuuAIgO7Oog7kkzqYqnjPVwRir7xfK4DB2HTwsLmecQWHsOuicdPuWq2N9UJhLc31kXD11qukx2kIYwhCGMIQhjJ4QhjCEIQxhBPILd57ik5HYfIYAAAAASUVORK5CYII=;" parent="50PbLL9UkYOBZdIO85tb-12" vertex="1">
          <mxGeometry width="60" height="45.43" as="geometry" />
        </mxCell>
        <mxCell id="50PbLL9UkYOBZdIO85tb-13" value="" style="group" vertex="1" connectable="0" parent="1">
          <mxGeometry x="340" y="1000" as="geometry" />
        </mxCell>
        <mxCell id="PbtdcRw7RCsZxsqq4dKP-31" value="" style="endArrow=none;html=1;exitX=0;exitY=0;exitDx=0;exitDy=0;entryX=1;entryY=0;entryDx=0;entryDy=0;" parent="50PbLL9UkYOBZdIO85tb-13" source="PbtdcRw7RCsZxsqq4dKP-23" target="PbtdcRw7RCsZxsqq4dKP-19" edge="1">
          <mxGeometry width="50" height="50" relative="1" as="geometry">
            <mxPoint x="-150" y="10" as="sourcePoint" />
            <mxPoint x="-30" y="-90" as="targetPoint" />
          </mxGeometry>
        </mxCell>
        <mxCell id="PbtdcRw7RCsZxsqq4dKP-32" value="" style="endArrow=none;html=1;entryX=0;entryY=0;entryDx=0;entryDy=0;exitX=1;exitY=0;exitDx=0;exitDy=0;" parent="50PbLL9UkYOBZdIO85tb-13" source="PbtdcRw7RCsZxsqq4dKP-23" edge="1">
          <mxGeometry width="50" height="50" relative="1" as="geometry">
            <mxPoint x="-30" y="10" as="sourcePoint" />
            <mxPoint x="-150" y="-90" as="targetPoint" />
            <Array as="points">
              <mxPoint />
            </Array>
          </mxGeometry>
        </mxCell>
      </root>
    </mxGraphModel>
  </diagram>
  <diagram name="Copy of Page-1" id="_kDx7Y0sTUdDXssDhxlB">
    <mxGraphModel dx="1422" dy="791" grid="1" gridSize="10" guides="1" tooltips="1" connect="1" arrows="1" fold="1" page="1" pageScale="1" pageWidth="827" pageHeight="1169" math="0" shadow="0">
      <root>
        <mxCell id="Hj_LFDybidfmUEGG6L2G-0" />
        <mxCell id="Hj_LFDybidfmUEGG6L2G-1" parent="Hj_LFDybidfmUEGG6L2G-0" />
        <mxCell id="Hj_LFDybidfmUEGG6L2G-2" value="" style="rounded=0;whiteSpace=wrap;html=1;" vertex="1" parent="Hj_LFDybidfmUEGG6L2G-1">
          <mxGeometry width="820" height="2620" as="geometry" />
        </mxCell>
        <mxCell id="Hj_LFDybidfmUEGG6L2G-3" value="" style="rounded=0;whiteSpace=wrap;html=1;" vertex="1" parent="Hj_LFDybidfmUEGG6L2G-1">
          <mxGeometry width="120" height="1690" as="geometry" />
        </mxCell>
        <mxCell id="Hj_LFDybidfmUEGG6L2G-5" value="" style="rounded=0;whiteSpace=wrap;html=1;fillColor=#e1d5e7;strokeColor=#9673a6;" vertex="1" parent="Hj_LFDybidfmUEGG6L2G-1">
          <mxGeometry y="100" width="120" height="80" as="geometry" />
        </mxCell>
        <mxCell id="Hj_LFDybidfmUEGG6L2G-6" value="" style="rounded=0;whiteSpace=wrap;html=1;fillColor=#e1d5e7;strokeColor=#9673a6;" vertex="1" parent="Hj_LFDybidfmUEGG6L2G-1">
          <mxGeometry y="180" width="120" height="80" as="geometry" />
        </mxCell>
        <mxCell id="Hj_LFDybidfmUEGG6L2G-7" value="&lt;div&gt;&lt;br&gt;&lt;/div&gt;&lt;div&gt;&lt;br&gt;&lt;/div&gt;&lt;div style=&quot;font-size: 21px&quot;&gt;Project&lt;br&gt;&lt;/div&gt;" style="rounded=0;whiteSpace=wrap;html=1;fillColor=#e1d5e7;strokeColor=#9673a6;" vertex="1" parent="Hj_LFDybidfmUEGG6L2G-1">
          <mxGeometry y="260" width="120" height="80" as="geometry" />
        </mxCell>
        <mxCell id="Hj_LFDybidfmUEGG6L2G-8" value="" style="rounded=0;whiteSpace=wrap;html=1;fillColor=#e1d5e7;strokeColor=#9673a6;" vertex="1" parent="Hj_LFDybidfmUEGG6L2G-1">
          <mxGeometry y="340" width="120" height="80" as="geometry" />
        </mxCell>
        <mxCell id="Hj_LFDybidfmUEGG6L2G-11" value="" style="rounded=0;whiteSpace=wrap;html=1;" vertex="1" parent="Hj_LFDybidfmUEGG6L2G-1">
          <mxGeometry x="120" width="700" height="420" as="geometry" />
        </mxCell>
        <mxCell id="Hj_LFDybidfmUEGG6L2G-12" value="" style="endArrow=none;html=1;entryX=1;entryY=0;entryDx=0;entryDy=0;exitX=0;exitY=1;exitDx=0;exitDy=0;" edge="1" parent="Hj_LFDybidfmUEGG6L2G-1" source="Hj_LFDybidfmUEGG6L2G-11" target="Hj_LFDybidfmUEGG6L2G-11">
          <mxGeometry width="50" height="50" relative="1" as="geometry">
            <mxPoint x="389" y="235" as="sourcePoint" />
            <mxPoint x="439" y="185" as="targetPoint" />
          </mxGeometry>
        </mxCell>
        <mxCell id="Hj_LFDybidfmUEGG6L2G-13" value="" style="endArrow=none;html=1;entryX=1;entryY=0;entryDx=0;entryDy=0;exitX=0;exitY=0;exitDx=0;exitDy=0;" edge="1" parent="Hj_LFDybidfmUEGG6L2G-1" source="Hj_LFDybidfmUEGG6L2G-11" target="Hj_LFDybidfmUEGG6L2G-14">
          <mxGeometry width="50" height="50" relative="1" as="geometry">
            <mxPoint x="480" y="300" as="sourcePoint" />
            <mxPoint x="530" y="250" as="targetPoint" />
          </mxGeometry>
        </mxCell>
        <mxCell id="Hj_LFDybidfmUEGG6L2G-14" value="" style="rounded=0;whiteSpace=wrap;html=1;" vertex="1" parent="Hj_LFDybidfmUEGG6L2G-1">
          <mxGeometry x="120" y="420" width="700" height="440" as="geometry" />
        </mxCell>
        <mxCell id="Hj_LFDybidfmUEGG6L2G-15" value="" style="rounded=0;whiteSpace=wrap;html=1;fillColor=#d80073;strokeColor=#A50040;fontColor=#ffffff;" vertex="1" parent="Hj_LFDybidfmUEGG6L2G-1">
          <mxGeometry x="160" y="440" width="600" height="180" as="geometry" />
        </mxCell>
        <mxCell id="Hj_LFDybidfmUEGG6L2G-16" value="" style="rounded=0;whiteSpace=wrap;html=1;fillColor=#d80073;strokeColor=#A50040;fontColor=#ffffff;" vertex="1" parent="Hj_LFDybidfmUEGG6L2G-1">
          <mxGeometry x="160" y="620" width="600" height="160" as="geometry" />
        </mxCell>
        <mxCell id="Hj_LFDybidfmUEGG6L2G-17" value="" style="rounded=0;whiteSpace=wrap;html=1;" vertex="1" parent="Hj_LFDybidfmUEGG6L2G-1">
          <mxGeometry x="120" y="860" width="700" height="290" as="geometry" />
        </mxCell>
        <mxCell id="Hj_LFDybidfmUEGG6L2G-18" value="" style="rounded=0;whiteSpace=wrap;html=1;" vertex="1" parent="Hj_LFDybidfmUEGG6L2G-1">
          <mxGeometry x="190" y="910" width="150" height="210" as="geometry" />
        </mxCell>
        <mxCell id="Hj_LFDybidfmUEGG6L2G-19" value="" style="rounded=0;whiteSpace=wrap;html=1;" vertex="1" parent="Hj_LFDybidfmUEGG6L2G-1">
          <mxGeometry x="370" y="910" width="150" height="210" as="geometry" />
        </mxCell>
        <mxCell id="Hj_LFDybidfmUEGG6L2G-20" value="" style="rounded=0;whiteSpace=wrap;html=1;" vertex="1" parent="Hj_LFDybidfmUEGG6L2G-1">
          <mxGeometry x="560" y="910" width="150" height="210" as="geometry" />
        </mxCell>
        <mxCell id="Hj_LFDybidfmUEGG6L2G-21" value="" style="rounded=0;whiteSpace=wrap;html=1;fillColor=#d80073;strokeColor=#A50040;fontColor=#ffffff;" vertex="1" parent="Hj_LFDybidfmUEGG6L2G-1">
          <mxGeometry x="190" y="1000" width="150" height="120" as="geometry" />
        </mxCell>
        <mxCell id="Hj_LFDybidfmUEGG6L2G-22" value="" style="rounded=0;whiteSpace=wrap;html=1;fillColor=#d80073;strokeColor=#A50040;fontColor=#ffffff;" vertex="1" parent="Hj_LFDybidfmUEGG6L2G-1">
          <mxGeometry x="370" y="1000" width="150" height="120" as="geometry" />
        </mxCell>
        <mxCell id="Hj_LFDybidfmUEGG6L2G-23" value="" style="rounded=0;whiteSpace=wrap;html=1;fillColor=#d80073;strokeColor=#A50040;fontColor=#ffffff;" vertex="1" parent="Hj_LFDybidfmUEGG6L2G-1">
          <mxGeometry x="560" y="1000" width="150" height="120" as="geometry" />
        </mxCell>
        <mxCell id="Hj_LFDybidfmUEGG6L2G-24" value="Download Resume" style="rounded=1;whiteSpace=wrap;html=1;fillColor=#0050ef;strokeColor=#001DBC;fontColor=#ffffff;" vertex="1" parent="Hj_LFDybidfmUEGG6L2G-1">
          <mxGeometry x="560" y="790" width="180" height="50" as="geometry" />
        </mxCell>
        <mxCell id="Hj_LFDybidfmUEGG6L2G-25" value="About Me" style="rounded=0;whiteSpace=wrap;html=1;fillColor=#60a917;strokeColor=#2D7600;fontColor=#ffffff;fontSize=20;" vertex="1" parent="Hj_LFDybidfmUEGG6L2G-1">
          <mxGeometry x="170" y="450" width="150" height="30" as="geometry" />
        </mxCell>
        <mxCell id="Hj_LFDybidfmUEGG6L2G-26" value="Skills" style="rounded=0;whiteSpace=wrap;html=1;fillColor=#60a917;strokeColor=#2D7600;fontColor=#ffffff;fontSize=20;" vertex="1" parent="Hj_LFDybidfmUEGG6L2G-1">
          <mxGeometry x="170" y="625" width="150" height="30" as="geometry" />
        </mxCell>
        <mxCell id="Hj_LFDybidfmUEGG6L2G-27" value="Projects" style="rounded=0;whiteSpace=wrap;html=1;fillColor=#60a917;strokeColor=#2D7600;fontColor=#ffffff;fontSize=20;" vertex="1" parent="Hj_LFDybidfmUEGG6L2G-1">
          <mxGeometry x="120" y="860" width="150" height="30" as="geometry" />
        </mxCell>
        <mxCell id="Hj_LFDybidfmUEGG6L2G-28" value="" style="endArrow=none;html=1;exitX=0;exitY=0;exitDx=0;exitDy=0;entryX=1;entryY=0;entryDx=0;entryDy=0;" edge="1" parent="Hj_LFDybidfmUEGG6L2G-1" source="Hj_LFDybidfmUEGG6L2G-22">
          <mxGeometry width="50" height="50" relative="1" as="geometry">
            <mxPoint x="400" y="1010" as="sourcePoint" />
            <mxPoint x="520" y="910" as="targetPoint" />
          </mxGeometry>
        </mxCell>
        <mxCell id="Hj_LFDybidfmUEGG6L2G-29" value="" style="endArrow=none;html=1;entryX=0;entryY=0;entryDx=0;entryDy=0;exitX=1;exitY=0;exitDx=0;exitDy=0;" edge="1" parent="Hj_LFDybidfmUEGG6L2G-1" target="Hj_LFDybidfmUEGG6L2G-19">
          <mxGeometry width="50" height="50" relative="1" as="geometry">
            <mxPoint x="520" y="1000" as="sourcePoint" />
            <mxPoint x="400" y="900" as="targetPoint" />
            <Array as="points">
              <mxPoint x="520" y="1000" />
            </Array>
          </mxGeometry>
        </mxCell>
        <mxCell id="Hj_LFDybidfmUEGG6L2G-30" value="" style="endArrow=none;html=1;exitX=0;exitY=0;exitDx=0;exitDy=0;entryX=1;entryY=0;entryDx=0;entryDy=0;" edge="1" parent="Hj_LFDybidfmUEGG6L2G-1" source="Hj_LFDybidfmUEGG6L2G-23">
          <mxGeometry width="50" height="50" relative="1" as="geometry">
            <mxPoint x="590" y="1010" as="sourcePoint" />
            <mxPoint x="710" y="910" as="targetPoint" />
          </mxGeometry>
        </mxCell>
        <mxCell id="Hj_LFDybidfmUEGG6L2G-31" value="" style="endArrow=none;html=1;entryX=0;entryY=0;entryDx=0;entryDy=0;exitX=1;exitY=0;exitDx=0;exitDy=0;" edge="1" parent="Hj_LFDybidfmUEGG6L2G-1" target="Hj_LFDybidfmUEGG6L2G-20">
          <mxGeometry width="50" height="50" relative="1" as="geometry">
            <mxPoint x="710" y="1000" as="sourcePoint" />
            <mxPoint x="590" y="900" as="targetPoint" />
            <Array as="points">
              <mxPoint x="710" y="1000" />
            </Array>
          </mxGeometry>
        </mxCell>
        <mxCell id="Hj_LFDybidfmUEGG6L2G-32" value="" style="rounded=0;whiteSpace=wrap;html=1;" vertex="1" parent="Hj_LFDybidfmUEGG6L2G-1">
          <mxGeometry x="120" y="1150" width="700" height="540" as="geometry" />
        </mxCell>
        <mxCell id="Hj_LFDybidfmUEGG6L2G-33" value="" style="rounded=0;whiteSpace=wrap;html=1;fillColor=#f8cecc;strokeColor=#b85450;" vertex="1" parent="Hj_LFDybidfmUEGG6L2G-1">
          <mxGeometry x="150" y="1190" width="360" height="470" as="geometry" />
        </mxCell>
        <mxCell id="Hj_LFDybidfmUEGG6L2G-34" value="" style="rounded=0;whiteSpace=wrap;html=1;" vertex="1" parent="Hj_LFDybidfmUEGG6L2G-1">
          <mxGeometry x="540" y="1190" width="250" height="250" as="geometry" />
        </mxCell>
        <mxCell id="Hj_LFDybidfmUEGG6L2G-35" value="&lt;div style=&quot;font-size: 23px;&quot;&gt;Get in Touch&lt;br style=&quot;font-size: 23px;&quot;&gt;&lt;/div&gt;" style="text;html=1;strokeColor=none;fillColor=none;align=left;verticalAlign=top;whiteSpace=wrap;rounded=0;fontSize=23;" vertex="1" parent="Hj_LFDybidfmUEGG6L2G-1">
          <mxGeometry x="160" y="1200" width="160" height="50" as="geometry" />
        </mxCell>
        <mxCell id="Hj_LFDybidfmUEGG6L2G-36" value="&amp;nbsp;Your name" style="rounded=0;whiteSpace=wrap;html=1;fontSize=23;align=left;" vertex="1" parent="Hj_LFDybidfmUEGG6L2G-1">
          <mxGeometry x="220" y="1270" width="210" height="50" as="geometry" />
        </mxCell>
        <mxCell id="Hj_LFDybidfmUEGG6L2G-37" value="" style="rounded=0;whiteSpace=wrap;html=1;fontSize=23;align=left;" vertex="1" parent="Hj_LFDybidfmUEGG6L2G-1">
          <mxGeometry x="160" y="1270" width="60" height="50" as="geometry" />
        </mxCell>
        <mxCell id="Hj_LFDybidfmUEGG6L2G-38" value="" style="rounded=0;whiteSpace=wrap;html=1;fontSize=23;align=left;" vertex="1" parent="Hj_LFDybidfmUEGG6L2G-1">
          <mxGeometry x="160" y="1350" width="60" height="50" as="geometry" />
        </mxCell>
        <mxCell id="Hj_LFDybidfmUEGG6L2G-39" value="" style="rounded=0;whiteSpace=wrap;html=1;fontSize=23;align=left;" vertex="1" parent="Hj_LFDybidfmUEGG6L2G-1">
          <mxGeometry x="160" y="1420" width="60" height="40" as="geometry" />
        </mxCell>
        <mxCell id="Hj_LFDybidfmUEGG6L2G-40" value="Message" style="rounded=0;whiteSpace=wrap;html=1;fontSize=23;align=left;" vertex="1" parent="Hj_LFDybidfmUEGG6L2G-1">
          <mxGeometry x="220" y="1480" width="210" height="100" as="geometry" />
        </mxCell>
        <mxCell id="Hj_LFDybidfmUEGG6L2G-41" value="" style="rounded=0;whiteSpace=wrap;html=1;fontSize=23;align=left;labelBorderColor=#000000;" vertex="1" parent="Hj_LFDybidfmUEGG6L2G-1">
          <mxGeometry x="160" y="1480" width="60" height="100" as="geometry" />
        </mxCell>
        <mxCell id="Hj_LFDybidfmUEGG6L2G-42" value="&lt;div align=&quot;center&quot;&gt;&amp;nbsp;SEND&lt;/div&gt;" style="rounded=0;whiteSpace=wrap;html=1;fontSize=23;align=center;fillColor=#0050ef;strokeColor=#001DBC;fontColor=#ffffff;rotation=0;" vertex="1" parent="Hj_LFDybidfmUEGG6L2G-1">
          <mxGeometry x="220" y="1600" width="210" height="50" as="geometry" />
        </mxCell>
        <mxCell id="Hj_LFDybidfmUEGG6L2G-43" value="" style="shape=image;verticalLabelPosition=bottom;labelBackgroundColor=#ffffff;verticalAlign=top;aspect=fixed;imageAspect=0;image=data:image/png,iVBORw0KGgoAAAANSUhEUgAAATwAAAE3CAYAAAA3wv3FAAAgAElEQVR4nO2dz08kybbf+X+ahB7vyaL77U1BjyUby7o7Y3mB5AWWjSyZldEgDfdqZIY3F400NBJ66svjiZbQZWQeI8bCPLUl2o3V4MYSjHhCxpgF4AWwireAk3XiZERkVBFVmUV8U/qoGyorK05W5ocTP7MnSesKAABioKfsAgAAQKeA8AAA0QDhAQCiAcIDAEQDhAc6Su/AkOodGNL+r5HWVW86pF6k9P+Hn/k+ZccAuhcID3QUKbgkrau+2nD22os0D4QHQgHhgY6RZWxMXP2DI+rlqzeqf3DkcR+R2Rl+LjsO0L1AeKBj9Kb1LGtL0obsvnr9tS49kcllVdzawzHKjgN0LxAe6BgkvN6aLjvCJj0ID4SircIbn5xWOx8+qvOLS8W384tLtfPhoxqfnG7qOCenZ9pxrq5v1N7+gZqdX3S+f3N7V3vf5vaudV/Xfq1usny3d/eF+7Tr3Mpz4budnJ4Vlolv8tzJ7+73P7zVZEf8/oe32n7ffv/TQ3W29iBLeZyizXVel1fX1eHRsbq6vsnFuraxpUbHJkq/QUFY2iY83xtrbWPLeZydDx+9jnNyeuZ9k9/e3VsvZr61Q3gLSyvGffb2DzpybqsivN/+/swovD/8sKTt1w7hTc3M5SRn2m7v7guvT9BdtEV4e/sHTV2Utouq2ePc3t2rqZm53HFMN7lNMHxrh/AOj46tZe/Eua2K8JRS6q/+5s+FwpudX8x6b3tr5uO4Nim8qZk5Y4bt2pr5YwSqTXDhrW1saRfL7d29Wl5dzzIqqorJTWZn8jhKPdxEfL+FpRVjlU6WyXaTm/76y88rilfegK59R8cmcjcS35ZX1ztybiWz84tNx21CHoN6V03nicr/L/71v3MK7/d/+dYqvJPTM2PPr+v8y8zu/OJSLSytZPuMT04brxe+D+heggpvdGxC++tpy7iSNC+hnQ8frcdRSlmPk6T5m0mKwyY8kxz5Flp4y6vr2r7jk9PaDXh4dNz2c2uiHcL7L9u72eDhvtqw+s2Smf23//4/tM6LnPB+eKv6B0ey8XhSeNlYPQ/hyfPiOt/ynFxd35R6o4IwBBWevKGL2j+o04FnKabjFN2w45PT2v5SZK5qnJQj30ILj1dnqYwyI7O1LYY6tyZCCK93YEg7BgmvrzasXr56o377e3tV9N/8h2/Uy1dv1MtXb3LC+8MPS1nvbe+AQXgDclaG+5z4nGtCZuDI8rqfoMKTF4hvL2zRcVzZHSHFwy9mU6cF/z/fl28hhSersySsqZk54+/bdW5NtEN4m7/uZrL76vXXmvBk9n5yeqaSx31lL+0ffljKsr/+wZF8lTabktYQn6l88o+iK7uznZeiP7yg+gQVXjPZTujjSKnx9jn5miuD1G7agMIzVWfpNZ55mKrZIc+tiSDCk+fu112tbY4L77fTM/Xxfx5q+/9x6U8qqQ07hffV66+tVWPTxq+BVmPkm0/HDag2UQrP9BmURTZ7U/iW1VSdJWRnhCl76zbh/e1//Tun8P75v/q3WqZ3dX2j/unYRK4sEB4ISbTCk1VJupibvSl8yiqrs/K4srplqjpVX3h6lbZIeL0DQ2rtz1u5z4XwQDuJVnhJam6Ubvam8CmrzOBMbZJ8eI2pR7DqwktSkeH92hCe7LTgbW+8On97d6+W/1qv+ueEJ8SZpPXGslKOqWcQHkjSwMKTg2qLGtZPTs/U4dGxWl5d1/aVxwndaUG/l0M9ZC9eKOHJsYI+mxwjGOrcmihTeN9+/5P2PvkdyCloPMP77fRM9dWGH8bpDbg7LWRGj06LOCltWIqr10wep2ike7PDUvhrpgHOtIUQniyb7yZjDnVuTTQjPN4bSmPjqDeWb7xK+/LVG01UXHhJap99otSD+Pk4PSm8l6/eZNJrLCCqD1ExZZNKFf/RwLCU50fbBx7bLip5kfOLyTTw2DYLYXRsIpdBFU2nksewZWAhhOcSqmuTU81CnVsTvsKTC3Ry2X31+mvtGFx48jzJquH45LR1ute33/+kkrRuHN7y2+lZNlzFlOnJxUbldXB+cek97tF36h+oNsGnlpnGvPHBr1Mzc7kb0jQUo51Ty+Tr8obnn1cUb5HwitrmXDEXzRhp9dwWxW+Km493o7ayvtqw6h8cycTGt7/99e/Uy1dvjOfJ1BZmGxz+7fc/ZZmgzBRpAQIamNxXG9aXhxerJGNqGSh98QDXFKl2LR5g+ixTteqpwvPpfXXtb6qKhjq3HC/hpfrgXsrsCJPwbOfJJDyTjJTShSenqPEVV6gcD9LLy47+j8UD4qZty0P5LOt0dX1TeEP6ru7RzPJQpn1M1aqnCk9mbD5ZgsxYTVWuUOeW8BNeo80uYdVYm/A2f304BommSHhJWld/XPpTLg7eedM7MGQVHhcff0YGLwP9PDUz59WRhOWhnh+lLADa7AKLRQuAFonER3im/Z4qPB63bxuQlKTthgt1bpPUT3hcdqbVinPC225eeKbzSctDmY4jhUfypeot/3zeqUGfVbQAaMjpe6AaYIl34AXvoOBZnfw/iSZJzY9hLPwcS1VU/sw7S6TwjNJLixcXAM8fCA940WeoxkqopzRJLc+cLRCeS3YmuIALpVewuACIAwgPZDQei9h4IHaS1guzqUx2tfxDs1sRns/P2f9rw6rfkXFS2V6k+WWkTIuH4tm3zxsID6gkbdzomRgenyFhkp2pk6AxXCX/4Ox2PESbl7Nv0LeM9cYUtIKylv19gPYA4YGG7ITwimSnyWSgMRjZlJWFloipnLayyuqtHKfXznKCagHhgXx2l5rbx1zCS9J69oBtfszQmZPsce1Nh7JeY1/p8XLaylr2dwLaA4QHsjF2vFG/SCAmmSSpXR7tEF6S6g/09hW06Vhow4sDCA9kPZiU+TQjO5f0suMPNDpCQpbb1DvbqpzbWU5QHSA8kAmvrzac64G19cr6yCQ7fhtEYiqfb1nlMBoILx4gPJBhkxiXmW2WBYekRxQtztksRdmcj5z/0V/8k/xA6cDlBNUDwgMqSe0Sod/xzM1nqArtz3tTQ4ikMMt8/UYlg8PZZ9FqLqb30O/aUU5QTSC8CKDxZ3wtO36Dv/wLdxtY/+CISmr6AgIu6fGZDrJDpGjAr5wGRj2xvQNDzuop/dw3OJJJi0uvqCqe8HI6OjHQqdHdQHgRIGVHY+6StF5YPW1MzdIH6yZpPVe9Nc1yePnqjS69WvGUMT4e8IVDdvIz9QHQeqbmqorLIStF5YPwuhcILwLkKsW9nrLLqrGpOSNLUr9hITyD6rVkUPxnX9lJMevT4ura8amsrmPwNj3bcBXIrruB8CJAmyMrZGeTVE52qb0K6jMjo3G8gsHJXMyPg4pt1VdNdgOs2uwQVZH0eIcLMrznB4QXAVICRePXcrKr2SVCv2umI8M64FfLRPNyMnVY8GXdTcJLDD/7lFN7MBDa8J4NEF4k+GQ4mpRSJrvUPf2KsjEax9eM9Pj/eaeIrZzGNjstK3Scg0foWRw+Cw6U/b2BsEB4EeArO2prywQiGv+t7VqOrMyURebH6bEqd0E5TdXYF+lDR4crI+M91T5zhU2ZHj9e2d8paA0ILxLkasV86AifeSCHrJhkx0VHvaK2RzeahKdnko3PSmrucXO2aqytZ1Urd1o3lpPi54Oq5fkxxV/29wlaA8KLhL7acCH5BUDNvZ0ya5Lj/JrJoJL0sSOjVjcKx9Sp0JCtuVMlX+U2jOtjw2uKzkuS5rNb0J1AeCAIPIPyGacnq422JZ5M2RYArQLhgSDwzIn/vmhYSeFUMUtbGgCtAOGBIPApYEmqV4F9FxOVUuRti/KYALQChAeCYOvJlIOTfaQnZYceUhAKCA8EoWg2Qm86VPiwHdM4OMxyACGB8EAwrOPg2GrKMtOzdVL0DTaGnkB0IBQQHgiCcxwcWyUlSYsXHHj56o1KavqiB2XHB54HEB4IgrUNL9U7NIqWadLX0tMfLATAU4HwQBCKqp1FsvOZggbAU4HwQBCsc1gNvbSuAcamMXhowwOhgPBAEFzCs3VU+AiPS6/sGEH3A+GBINja8Gzj77jMOLYqL6q3IAQQHgiCqZdWVmNpiljROnO0j+zNhfTAU4HwQBDkcBQSlklwPh0c/HUuwLLjBN0NhAeC4VyAc+BxkU7Tsk4M+R7MsAAhgfBAEKxr0bGfbc/FlQtzytWLITwQCggPBMFHSvoCozLbY7+D6ECbgPAAANEA4QEAogHCAwBEA4QHAIgGCA8AEA0QHgAgGiA8AEA0QHgAgGiA8AAA0QDhAQCiAcIDAEQDhAcAiAYIDwAQDRAeACAaIDwAQDRAeACAaAgmvM3tXXVyeqZxeHSsxienSwns0+cvirZPn780/Xqr+3/6/EV9892Pud+fX1xm7//5l53s999896Oybfw4rcZDx5dlGv7duFJKqbfv3qvzi0t1fnGZOybtQ+X1KScAVSaY8Gi7ur5RJ6dn2c+b27sdD+rnX3a0G/j84lKTTNHrzR6P72cSwPnFpSahn3/ZaerznhoPlYt/xqfPX7J9uPxc5TDx9t17Nfy78dIuYACaIZjwrq5v1Ob2rsbJ6VnbhEc3qelmk9KhLMf3ddPxeKY6Pjmd258yuPOLS+3YtC8vp6vstD//vBDx8EzN9Prbd++131EZXRn6+OR0TpIAVJlgwjs5Pcv9jsTXjoJ3SngmudExSAbffPdjJhMpPNuxzy8ujTLhmVfIeHjV1lYN5VL89PlLYVW/KPsDoGo8S+GFrNLahGWThi3D83m/KRsMGQ+189lEJqXoqqp++vyltPZZAFqlq4RHQrBtfF+qovGspZnXCVeG5iM8+p1swzMJ7+dfdqwyChEPxeKqhpIUXfvwjBaAbqKrhMcpqtK6Gu2LXuc8NcPj+9P2zXc/GvezHTNEPHS+aLNlb7aMVB6nzIsWgFZ5dsIrElSzAvNpw+PYhGcqu6kjpF3x8CxTZpw+8TYTHwBVJZjwzi8u1ez8osbe/kHXC49eK+ql5eeBH8ckN1svqakTIEQ8VN2lc0Xlb0bwSeo3TAWAKhN8HN7h0bFa29jKfi5jHF5RFa/odUkznRymDEj2vCplHvNmO+ZT4iGByc+jtjr5WTbhkVjRUQG6maAZnlIP49D29g+UUkrd3t2r2fnFUgKTW7OvS3xnWrg6M2gzdQh8+vzF2VHQSjyUXbpmUchYbMLj8csNHRigW8BcWgBANEB4AIBogPAAANEA4QEAogHCAwBEA4QHAIgGCA8AEA0QHgAgGiA8AEA0QHgAgGiA8AAA0QDhAQCiAcIDAEQDhAcAiAYIDwAQDRAeACAaggpvdn5RHR4dZw/gpqXep2bmSg8UAACCCW9hacW6Iq5SSl1d36jl1fXSAwYAxEsw4V1d3+Qkd3J6pk5Oz7Tlzff2D0oPGgAQJ8Ef4kPPUBgdm9BeH5+czqS4trFVeuAAgPgI/hAfpVT24J7N7V11cnqWCW7nw8esetuOYJRS2dO1aHv77n32YBra+JO35M/yITbyvfw12+u2xz3S08TocYn8QTryyWZ0Tk3lt8UCAHATTHj80YwkvIWlFbW3f6Curm80IfJ9QiKFRPLjT+2Sj1x0Cc/0TNmff9nJnvRFr3PBFT3y8dPnL9nn8//L58vaHszNj+N6ehoAIE8w4W1u72bCOTk9y1VpZ+cXjVlgSJTSH4Ho8xBsl/Do/81kUbYHY8sy0WMPbdnm23fvrULDA7EBaI22ZHhX1zfq6vomG55CNzHvyW2X8Hi29VThJWkjY5PZo+mzffZL0geZSTknqf7AbqrO2t5b9oUDQDcSTHi8nWl2flGNjk2ok9MzpVSjZ3Z2fjHbZ3N7N3gw7RCePJYUGm0kJ9v7OZTdyQzum+9+VOcXl9lnyeosld1WzQUAuAk68FgKjjM6NqEOj44zQZycngUPplXh8fcUVUn5e0hQ/LWi99Pr/F9Z3rfv3ueO20r1GgCgE1R445PT6vbuXin1UK3d+fBRbW7vqp0PH3Pj9KoivPOLS613lNoZKR5bBjj8u/FcxsWzQFsWppTKPs/UwUHZn6kt0tb7CwDwI/hc2vHJ6SzTc23tmHXRivBkVVW+Loe5SJnJNj4pp0+fv2Ty4jLlZebZHH2e7Bm2bajeAuBP2xYPmJqZU5vbuxmU4d3e3bel/e65YKomAwDCgNVSKgbPCAEAYYHwKgJVhZHdAdA+IDwAQDRAeACAaIDwAADRAOEBAKIBwgMARAOEBwCIBggPABANEB4AIBogPABANEB4AIBogPAAANEA4QEAogHCAwBEA4QHAIiGYMJbXl1XJ6dnTdOOlY9jxrTJB3yXBV+B2rQaNQDtJpjwlFJqYWlFzc4vekOPbSz7JDwHaBl403MvTM/ALRsID5RBUOFNzcw19Z6pmTkILwA+D+b2eRpbJ4HwQBkEFd75xaUaHZvw2n90bML4UJtQZZEP33n77r327Fx5s8mf5fNl5XtluU2vU7ZF2Zd8utmnz1+0h28T9BBu0zFl2WU5edw//7KjPSPj5192cp8lzxE/Vivn0XUemq3SyocXyaXv6fpRKr9SdCtlB8+foMLb2z9Q5xeXhRfR+OS0Or+4VHv7B9oNFrIsJgnwm0JmRbYbN0nN2cjPv+xkD9I2PUZRPoLx0+cv2efx/8vMiz8G0hQbSZJ/DolAPjaSBEaSo/NO7yWx2s5bs+ex6Dw0IzxT1sqld35xqZ0Hfk5bvQbA8yeo8JK0rja3d9Xt3b2anV807jc7v6g9uaxdwjM917Xogdw24bXyEGzb4yBN7Wn857fv3ms3MscmARKclA1/sLf8nkxVXNM5afY8us6Dr/CKZGj6oyDfE6Ls4PkRXHhJWlcLSyvq9u5erW1safusbWyp27t7tbC0YnxfyLI0+3xal/CSNF+9cn22bT/KuGTVjFdrZdYl38t/N/y7cWumaIqLzgMdT4pVxtzKeXSdB1/hyXJIbI+y5OfuKWUHz5e2CC9JHzokzi8u1eHRsZqdX1SHR8fq/OIy17HRLcKTx5JCo41uONP7KbuToqEbmI4tq7OyqsrLSDf+23fvcxIwte/RZ7dLeK7z0AnhUXkhPGCibcJL0oeOib39A3Vyeqb29g+MHRpVEh5/j8/NQO8x3YDy/fQz/1eWzyUtV9WPji/fK6vAvH3Vt0rbzHksOg+drtJCeEDSVuG1831Fx2z2Yj+/uNR6MHkPskk6/KaTGRjPAnn7Gh1fdmgkaSP7M7U7mcbW8XJygdC+ssPC1RvMz9tThec6D0/ttOAdNj6dFhAekEB4Yh/abBka33iGIdv4uIBMw2+U0nsM6fiyJ9i28Z5Y3gtL29t37zPp0c+2c8X34eVs5Ty6zoNLeJ8+f8mVUR7LJGzabMNSmik7eP5owusdGHogHVK9ad3M4z7yfYdHx9ab07UdHh2XfhKqgK1dygeX0ORnyJs+VBkAKBsff9mFV6ur3lpdvUiH1Av6ObULT/4ONIcpw2kGnlG5XqefTR0hsloPQDfh4y9deAayNzz+LA9u+sCyA+8mqKoVIrOS1XK+mbK6oiojAN2Ej7+E8NiLBfLKbMr2g/AAAGXh4y9NeC8sb+irDZs/QAgPAADKwuSvvtqw5i+z8JjE+gdH1MtXb9TLV29y4jNleQAAUAbSX3214cxd/YMjKkltVVomu69ef62+ev21VXpJiqosAKB8uL9Idtxf/YMj+U6LF2mjGsvfwN9UVMUtO3AAQHxwf1HNVPorV6XtrdVV/6tGNVZa0iU9CA8AUBYv0iGVDA5r7pL+6knShhl7U92M8g026bl6bNGLCwB4KtInmVPSRlU2SeuqnznL5K8eGqiX1MxpoBSdSXqmjgtTASE8AEAruHzSm9ZVUhv28leP7I017WyyJU8ZufRchSz7pAEAuhdbUsV7Y4v81dPnaUbXAZvN9Mo+cQCA7sLWNGbqXLX566vXX6ueItmRzFwH5uNckOkBAEJjSpx8ZEfuoiF2Pa43aBJL66qPjctzSa+owGWfPABA9yEd0u/po2z/VyN24cm2OVMvrqt66ypw2ScOANB9mGaAeSVrj/5KanXV46rG8p1f8K5fy4f59N4CAECz+Mou17zG3NU7MJQXnjQjH+fSm7o/lA9byR0H4gMAWNCHmXDqhd4p8pdVeK4hJkla12xp+3DeK2IbnFz2yQUAVIusNilqlJlvaua5/dI9/Fjy+C9SJrz+wRGVCNnlhpjw1UMfXzM1HPLCmKRnCrTsEw4AKI9sSac0X6tMHqe72hzjqlFyl71Ihx46LV6+eqOSWt0oO5lqyiVYXNKTaWYuSFR3AQDpo/DEYySKms+ymuSrNzknmYTXS8Kjtd97U4fsRAeG3E8WSqacXHquggEA4qMhPLvs5CDiB9mNsIU/3fP4X6RDqofXk+mZFTYJyc4LmQ36ZnqQHQCAk3UuOMbZyayub3BEc1eRvzThkR2LCmWyMMeV6cnByZAdACBJdeElqUdv7GM1ltc4fT6jx/bQC2tPLdmTPQKNOjJInK4xekXT0AAA8UHJVNGqTVJ2pja/3LHZaz2ysc+0UyIOyjsvJLbqrVyEQE77AADECwmPP0PHJLu+wRG989TDX/z1Ht+Ha+vCq4uBgfznRkFs1VtOFqyg7C8AABAW032eLcvOVm2y1RD7H2WnDV8pqInK3/WE7jyQbYK+00CKOk+QCQLQ3dhqhj6ZnavDsxlHZAuABheeoWvZ1L2sVW/TvLkhPAC6G14LfDHw2BPLemT5M3QK58YafNW08NqS4Q2YpWfqudWllx98CNkB0L2YRnfQPe27pl1RZlc54fmsSupaTy9J0asLQDfCJ/Dz37vWs5PCS9Li6mwlhFe0hLxLeq2mrQCA6uAzqLjIC6b5+E8WXsjgelPz079DGL3sLxAA4I9coqlowRFbOx73Av3brBPaluElbB35ZoRX1CtT9pcHAGiOrA2v9tBmZ5uF5VMLLGrPKypLT9F4FnMAcgye3hNT+Izb1/mJwM5MzzK4EABQHdxeqKu+weGc4LKfH2dQyBEcMlGSqxn7zLTgZDMttIIXWFMb6SymmJlklwvs9RuVDOpPE7LNyugbHG58nigTsj8AqoN19lWtrj071iQ17gTXflk7f02vJvNyuLyQm2nhShPlbIoX4v+0UJ977aoRlQwOZwW1dUvnpff0QYcAgPCYvMAnEZiedpibcTU4nC0szJ1gG7/bT+8RwivyV09fjckkdUvEtgAo73kpnFVRG86Z2WcszsO0Er9yAgA6h8sJ3uPsHo/jGt1hyvSyNj3DvFqTv3p4tdG2RFR2AEtwSVosu0Zg5lUOeCprPTGe5Sz7AgAgJqSsfGSnO6GuZYTNOIEyPdcSd9xfPbKDgO+g7ewQnq0KqwXG2+JY4eRJ8vlrUFTOsi8AAGLCJDzeG1uUALlWP/HJEF++eqOXx+Gv7JkWXiOa0/yIaZfktMCyY4jgRM9Oktql51vOsi8AAGKCj71N0sagYlt2xjM7umfpaWX0f+1+tmR6uXZAKo/DXz1SVDaZ8MBIeKb6tSmzkz2sUp4S218HrdES4/QAqAS2yQa2oWd9teFsXF6u3c3iBJP0TD8X+auH7+wc/8YzsVrdz7i8gyKVDYj6elgypXX13vITZwoO4gOgc5AT+gqeLqZ1PhIDooc1FU1nad0pPVPtslGuvL96bG/SOhhq+czO9sHNbsYTODCk/tm/nFDvN35Rv52eqdu7+2z/27t79b/+94n6q7/5c+MEGurss/OL2ufMzi829SXybXN7t+WLYXRsQq1tbKkTQxyHR8dqeXXd+L7xyWmtDDsfPhr329ze1fa7ur4x7re2saXtNzUz5yy3PH+0LSytWN9zdX2T2//k9Mx6Xn23sm9oUIyrzc7U/t4sfAl4l1S59EyPn+ixvYEXMKtf1+o5Y8v3h7iYl/96XZODbbu6/v/q93/59uGEVFB4y6u+cdwYy8cFIsVBnF9c5o43Pjmd229v/yB7/fbuvrDsNuHt7R8Y95+amTPuD+HFAV/z0pTVPUV2SWpvTnP5iPoOyF99tWFdeCZr8tVLTIOKQwtveXW96WOYsqSyhRcijsOjY+e5Gh2b8D4fPvJ0nT/afDNI22e1spV9MwM/2tmJKIVHGaWrY4QnbdRE1uPT5ds/OFK4xBMdnG8kCt/gTVnC4dGxmpqZy97/H7/5zzkR3N7dq/F//5+0zyhTeK44+D7GOFh2VlQNtUlVZmFSjD7x2IRnKkeS1tXJ6VkWA99cwntKUwGoHp0SHj9uUTWau+vlqzeqJ0ndc19NnRqm16g31nZB+wRPNw1taxtb1pMp26729g8qIzxXHBJTHPSaFKc8Dq+m8k1mYa2cC/keHpMsBxeqlDiE9/zpRGehbQywqXPT5a/smRa2JdhtWV9uTM1jAeQF7XsSZCP9//m//894MvnPspF8dGyi9DY8Gcf5xWXhe0xxmMohMzeeTclskGeKUqo+cZiER9KTMfFMU34WhPf8sd2jzb7fuY9lWiu9bmrDM/mrx/TkIFeamGvfo/E0DuH5BC+rZ5RFuIQnb64/Lv2pdOHZ4nAh4+A9oTyz4qLh2R91QnAB8nY8fgyf9rskNQtv58PH7GcuZZ5pmt4X4ryC6mJ67GLW0Zk2hodY3+8pPNsCBbRwiUt0OeHZlnayDVsxLdEihVe08YDkTf/t9z9pJ0OekN6BIfXt9z/lbqCyhSfjaKX6yD9PHo9Ew39/eHSsklTv5KDfJakuQt9YTOJaWFrJfuZCpeOfnJ41JTyfDVKsPrYJBJRIhRBetq/jc2zj9Li/eriBTdVb66BiGejAP1a9afnCo9efi/BscfDhKCQfnl1S1ier2K5xdK4ynZyeaW11VL3mmebm9i6EFyH6FNGhXMbXW/T+JoWnf4a5Tc/mrx7+gS7hmbp7TbZtZuOBdEoUvrR604WOw9TDKn9H7XVSblMzc7kqNhVIzkMAAAmHSURBVK+KNlMmGvhMoiWh8nhn5xchPNAWbFKUnZlFK6zkHuLTzBPG+tjUMarWtnqxQnj2z+PZHM3OoE12IPAOkLWNLa3dzacDpahM/HhTM3Na2UzvQxseCIEUnmn4i88TEnuazexMY+/4h7Z6Qctexqc29pclvNBxJKkumdu7e62TQE454/seHh1rQrJNTzNhEx5vx+OfxcXGNwgPhMAlPPqdz+gS47AUV9udCdewFN+AZHXMNqKf4xrOUZVhKU+NI0l1ySilD+6VcfF95SBg27xdEzbh2WZ3cJnyDcID7cInWZOuMg48No1Wts1dk1PQnnJBywG7tnmbSZofdMt7JZO0WgOPnxJHkuYlSptpTqxNSEqZ59jacFWzTYsE8KyUbxAeCIFtnJ/tQWA2V/XwaRdyOgZN+iX6B0dU/yt9qgb/ANvUMl9CTclK0ucxtYxjkoxJjklqXlDAJ9N0nT9+DkwzPGyDpSE8EAKT8OQTznz81cMzNPl0796BxsBBuWZdktZz89T6B0eefEG3a/EAn41LsdlNxhoqDsIkGdv+sk1QKXeWacIlPBmb7AzhW4jFAyBGINvreAeF9JfWmZHqw+d6TMu26LLLL9LJl3jXClML8xd8YWnlScsqJWn5wgsVB2FajcQ2xMQUezPtd6Zj8Cpr0Vp9fIPwQDugrM30mstfPaELEupC9Vk40zWmrArCCxEHIavJRUNMpGiLFvwsOn9SyLyKLXuV+QbhgSoRXHgAAFBVIDwAQDRAeACAaIDwAADRAOEBAKIBwgMARAOEBwCIBggPABANEB4AIBogPABANEB4AIBogPAAANEA4QEAogHCAwBEA4QHAIgGCA8AEA0QHgAgGiA8AEA0QHgAgGiA8AAA0QDhAQCiAcIDAEQDhAcAiAYIDwAQDRAeACAaIDwAQDRAeACAaIDwAADRAOEBAKIBwgMARAOEBwCIBggPABANEB4AIBogPABANEB4AIBogPAAANEA4QEAogHCAwBEA4QHAIgGCA8AEA0QHgAgGiA8AEA0QHgAgGiA8AAA0QDhAQCioa3C6/YNcSLObtwQZ4nCK8PinS474qw+iDPeODkQXoCyI87qgzjjjZMD4QUoO+KsPogz3jg5EF6AsiPO6oM4442TA+EFKDvirD6IM944ORBegLIjzuqDOOONkwPhBSg74qw+iDPeODkQXoCyI87qgzjjjZMD4QUoO+KsPogz3jg5EF6AsiPO6oM4442TA+EFKDvirD6IM944ORBegLIjzuqDOOONkwPhBSg74qw+iDPeODkQXoCyI87qgzjjjZPT1cIbn5xWy6vranN7V61tbKnxyelSyh7LhYM4W2N8clotLK2oze1djdn5xWcT5+b2rkrSulpYWlFTM3OV+j45XSu8nQ8fldzopHe67BBB9SkjzqmZOXV4dKw2t3fVzoeP6vbuXiml1OHRsVpYWnk2cSZpXZ1fXKrZ+UV1dX0TNPEIXfauFN7C0kpOdhBe9eOcmplTV9c36vbuXi2vrj/bOJP0Iau7vbvXsrjZ+UWllFJX1zdqdGziWcRJLK+uq739A3V+cammZubUyemZ2vnwUU3NzKmdDx/V8up60O88KuHt7R9kkju/uFQLSytqdn6xq6u0RTfA8uq6Ojk9yy6k0bEJNT45/eTqQyfjPDk9y76327v7tlwbVYgzSRvXqO0ctEv4ZQlvdGxCKaXUzoePanN7Vy0srWRZ38npWVaNLyNOTlcKj984z6Vq4KoKbG7v5rLZ27v77K9pt8TJmyHOLy7b8r1VIc4kbVyj8g8ZfZchb/4y4+SQ4Kh98uT0DMILARdeOxp+O33hTM3MZRIzCZzafkzSe2qm0OkbZG1jS61tbLWtSleVOG2ZHDXH8N9T51s3xiljhvACHWt0bELNzi+q2flFdX5xmd30axtb2e9D3kSdvnC41E5Oz9Ty6noWj23b+fCxq+Icn5zOvivKTPnv6I8X9WqG/E47/X0ur64rpfKZLLVz8d+RFLoxTg4Jbm1jSx0eHaur65us3fb84hLCawZq8HVtIbO9Tl44o2MT2Q3SzBYiK+hknLxqTje4rK6vbWxpP4fq4OhknARV4elm39s/UIdHx5nExyens99fXd8EyYLKiJOYmpnLYltYWsmaaGioSllt7JxnJbyyyv7Uz6YG32a3EILvZJw+wrNtT71ZOhmn/G55rYR/Z9SbeX5xqW7v7rNOqW6Kc3Z+Ue18+JiVvQjque3kdcvpGuHRxXFyeqZV/84vLoNcKGVfOKZxha4tVC9n1YR3eHScVYv41s2ZT5I22vT29g9yr3VrlZaG3jS73d7dP7mpotWyd43wTBePUs+j04LY3N71voBMN07V4/QRHr8R+Pd8eHTcNXFypmbm1PLqujo8Os5iOb+41OKksWrd9n0uLK1oopa1MBK5aXvqfdtq2SG8Clw4prhc2+3dfbD2kE7G6SM82/notqrewtKKurq+UXv7B1mHDI1NCxFPFeKk7446K5R6kPnV9Y26ur7Jqrsk+739g+w7hfCa4LkKb3Rswkt6ZY1Yh/D8MA094d8xSa8dc07LFh4NS6GhKTTHnZoqpmbmgvTYQnhdfOFI+EwSuYWqypYRZyzCI6HZXichdvviAT7C498zZbo0Lq9TcXIgvApcOHSR7Hz4qK6ub4yia9f8UwgvfJzUDmtrmJ+dX2zb1LoqC4+mR97e3au1ja2OxcmB8Cpw4STpw01A47G45E5Oz9o6MwHCCx8nH38n21qp2eI5TIk0CY86aUh4NO97b/9ALa+uZ6Mt0IbXBM9ReGXRyTjlAgjyd1JqfHzXU3sxO/198uWgeHzUlvUcvk+++gs1w9CqKSenZ2pv/yBbTIBqKDTcCMJrgqmZubZMJyvrwikTxNneOPm0uU7MH+5knKNjEy2NwwuxcERUwusEEAHi7EY6HSdNi5SrOdvgc8Q7FScHwqvIhYM4ESfibE+cHAgvQNkRZ/VBnPHGyYHwApQdcVYfxBlvnBwIL0DZEWf1QZzxxsmB8AKUHXFWH8QZb5wcCC9A2RFn9UGc8cbJgfAClB1xVh/EGW+cHAgvQNkRZ/VBnPHGyYHwApQdcVYfxBlvnBwIL0DZEWf1QZzxxsmB8AKUHXFWH8QZb5wcCC9A2RFn9UGc8cbJgfAClB1xVh/EGW+cnLYLr5s3xIk4u3FDnCUJDwAAqgSEBwCIBggPABANEB4AIBogPABANEB4AIBogPAAANEA4QEAogHCAwBEwz8AYBaT9D4GwpYAAAAASUVORK5CYII=;" vertex="1" parent="Hj_LFDybidfmUEGG6L2G-1">
          <mxGeometry x="540" y="1190" width="250" height="246.04" as="geometry" />
        </mxCell>
        <mxCell id="Hj_LFDybidfmUEGG6L2G-44" value="" style="shape=image;verticalLabelPosition=bottom;labelBackgroundColor=#ffffff;verticalAlign=top;aspect=fixed;imageAspect=0;image=data:image/png,iVBORw0KGgoAAAANSUhEUgAAAEkAAAB1CAYAAAACy8wKAAACTElEQVR4nO3YMY6qUBSAYXblNmYTbMEFULgCWwvLaWho6bSimdBAiIWJJL6EaOK8BPIiIWcKAmHU0Tcj4oH5b/L35svleu41LNcQup7x7B/Qh0ACCSSQNAUSSCCBpCmQQAIJJE2BBBJIIGkKJJBAAklTIIEEEkiaAgkkkEDSFEgggQSSpkACCSSQNAUSSCCBpCmQQAIJJE2BBBJIIGkKJO1IM28ki/VEwsT+lL+dixOYT8d5KpK7GssujeTWyo57CRNbZt7o9yC9+i//hXO68iITL54OH8kJTMmL7NtAzeVv58NFmnkjyY77u4CqtVhPhokUJnYrQCLlOdXEHwzS+7+4NSQREXc1Fss1ZJdGneysTpDaXmFi10gi8vBDvZdIFUqFlBeZvPov/Ub68/etVaRq0Gz+GWwOy34jLdaT1oB2aSSWW44UzdU80HuJZLmGbA7Lu4HyIqt30aXd2XukmTe667NrAl3amXmR9R+p6icz0y6N6oP5q8m992fST5Cy4142h2U9E1muIV48/fJq88hXg06RvHh6tkOcwBQnMMVdjetOJ2knMK9ejAcxJ1lueSaJlGfH6Q65lBOY4m/nN6f1Ll4HOt1J1+5aXjz99sHe1WVX3fPtYj2RzWF5toPyIjt7Sahmpl+HdKswsT8d3o/8V+stkuWWn231ee7S6OFPJr1E6jqQQAIJJE2BBBJIIGkKJJBAAklTIIEEEkiaAgkkkEDSFEgggQSSpkACCSSQNAUSSCCBpCmQQAIJJE2BBBJIIGkKJJBAAklTH/CJCr9y/Am4AAAAAElFTkSuQmCC;" vertex="1" parent="Hj_LFDybidfmUEGG6L2G-1">
          <mxGeometry x="160" y="1480" width="62.39" height="100" as="geometry" />
        </mxCell>
        <mxCell id="Hj_LFDybidfmUEGG6L2G-45" value="" style="shape=image;verticalLabelPosition=bottom;labelBackgroundColor=#ffffff;verticalAlign=top;aspect=fixed;imageAspect=0;image=data:image/png,iVBORw0KGgoAAAANSUhEUgAAAEsAAAA3CAYAAABErrdQAAABoUlEQVR4nO3YvYqDQBQFYN/K1/Al8go+gEWewNYipY1NqsB02WqaME0kSAisYEAibAKRkEHuVob9ya4mhLn+nAOnsxg+xmHmWp6wCG2u1pos7kX0pcACFrDYCyxgAYu9wAIWsNgLLGABi73A6iuWSFxS2YxUNqP5esK+nk5izdcTKq8F/czxknYKjR1LJO4vpK/RVdkZMFasQNqkq/JfLCKi8lqwQ7FjydRvhKqz3E3HjRXnUWusOI+ABayWVdmsNZZM/XFjhcppBaWrkgJpjxvLE+1+xS7sKlasQNokErcRrIaqvx0d1rZY3DDqW3qoHIrziA7nDR3OG4rziELlkEjcb7f7bbEYD9b7x9vdHbQ/rUimPonEJZG4JFOfDufN3W+5wIxiNT1tHkmonGFj/bWrngnH7jKKdW+y8GyOl3TYWK/OYLFeeV7VMX1u9RrL9N2r11imh4LGsAJpvxRKV6VRKKNYnnhsJNMUjvei8Rv8cje9PWme6f60Ypuask8d+lRgAQtY7AUWsIDFXmABC1jsBRawgMVeYAELWOwF1oNYn/D+o+5DJC3vAAAAAElFTkSuQmCC;" vertex="1" parent="Hj_LFDybidfmUEGG6L2G-1">
          <mxGeometry x="157.45" y="1270" width="68.18" height="50" as="geometry" />
        </mxCell>
        <mxCell id="Hj_LFDybidfmUEGG6L2G-46" value="" style="shape=image;verticalLabelPosition=bottom;labelBackgroundColor=#ffffff;verticalAlign=top;aspect=fixed;imageAspect=0;image=data:image/png,iVBORw0KGgoAAAANSUhEUgAAAEgAAAA3CAYAAACvmQxTAAABm0lEQVRoge3XsWqDUBQGYN/K1/Al8gp9gDxD1gwZXbpkCjg6uQSXFClZFCIUBQ1EJCJ/h3Av1ibFtN7q1V/4h0BySL7cc/QYS8cA8zjG0F9g7CEQgQhEIAKNOAQiEIEIRKARh0AEIhCBCDTiEIhAmgD5pw3ePl6VxD9t9AY6pjuovo7pTl8gAKjqAs77i5JUdQEA+gOpql9cU/2BAMD2rd5r274l62sPFJ/3vddOLsF0gAAgzNze6oaZ+6W21kDFNZXDND7vsfbMX9dbeybi817OtknMoOQSwPYt5GUkwbaHxdO1toeFBMnLCLZvyTbTHkj8+6I1qrqAF6061/GilTyFYebKUzgpoOaPfeYhr/mw2UadJNDSubWLOBF5Gd2dS2vPlG1Z1cXdtpwsUBugPZfa8+bRYJ80kEjzlh1m7rfXP312FkBL57bxixMjWqrLpj4bIBGxhHZ9/+yAng2B5gCUl5Gy+uIuqC1Qc+NWdak6of8CJJbL5BIoyV+X38GBdA6BCEQgAhFoxCEQgQhEIAKNOAQiEIEINGQ+Ac+uJeNEc9jEAAAAAElFTkSuQmCC;" vertex="1" parent="Hj_LFDybidfmUEGG6L2G-1">
          <mxGeometry x="160" y="1600" width="65.45" height="50" as="geometry" />
        </mxCell>
        <mxCell id="Hj_LFDybidfmUEGG6L2G-47" value="" style="shape=image;verticalLabelPosition=bottom;labelBackgroundColor=#ffffff;verticalAlign=top;aspect=fixed;imageAspect=0;image=data:image/png,iVBORw0KGgoAAAANSUhEUgAAAFIAAABMCAYAAAD+8OBwAAAAAXNSR0IArs4c6QAAAARnQU1BAACxjwv8YQUAAAAJcEhZcwAADsMAAA7DAcdvqGQAAASzSURBVHhe7ZzvayJHGMf7t/hvzOt9G3wVfHVyBCp9dRGkIMdh4AiBhnBI6cHti4JSjktfCBbyYskL20BrhKAvvHB4CS1K7io5idcTwdaFb2d3Z60bp9Ho7I/kngc+BHfdmezH2ZnZ2Zn9IhaLgVgdEqkIEqmIOyGSrT3AxsaGYB2a5DthE2GRGtKFKtofx5iJ8Ue0qwWkNdlx4RBNkSyL0vkApvD2vzH8A6Usk6cRMBEUmYDeHApTC4TZhREBmZETmTnozi+J1+PSQEaSVpBESyTL42Qk5NwqTLSKcXmaAREtkXs1LOWRh9nUwWRpBkSkRGaMS6FliQj58iaRioiUyEe8oVk6SOQUq9SRjefyNAMiWiJjOVT6wsytYoSTfLh9yYiJjCHx8uzW/UizU0JKklaQRE6kfWfTWOD20I1hE3pClk6wREwkw9oDa3QngZ3KO0iGKzwx/lBFnktka+tYY7L0giMaIrU0CvUuRnYxNHFV+w5JLkZLF1Bt98V2N0yM+m1UC19zeQzJ3SN0xXGj7mv8+EST5+Ez4YtM6GgMZi9kc3COygtLlvM9bd07Fql9+QyGdIRoiKae8OYRACGLTKHUmVXhifEQf70/Q71edzhtozecc9GbXRxkZPn5R6giWf5k6X7jvDBbRcQlefpFiCLjKLbmlMaVooPSQ1m+/hCeSKaj6adHHmcvgxtaC0/kCreDi0aQt42hiXxY6ojT9TG6B3gkydsPQhO50pDZojGqYU+Stx+EJlJvipP1NfjtoyRvPyCRiiCRighN5NOjT+JkfYzPoY4MovszOskH9mQxPJGL3GevEgHfb4cokpPIo3blg0xzgEbAI0DhirRgSWwVDBy7ozsrcmwUsJUM/vlN+CLvCSRSESRSESRSESRSESRSESRSESRSESRSESRSESRSESRSESRSESRSESRSESRSESRSESRSESRSEf6LnKx47aOS8+6bnf/jzA//OT/94Eq8SaA3cOaS2zN4X6O8m5w8anXSuYRx7amhMwmhCf2m2QhN3XPMsvguMl5sTeZ5X3/O7Ajo4ZdvxPsqHu+jZa15N1soxq3vuEtFTAzOKyhsb2Jzex/1D9bU5zHeHWTt9OaK1NbF+zA28OqNte0NXrnvyFhXM3nfZ5EplC/4/90/xvEZ/zsR5CAT4NmWq/BybC2l0ZEQ+21YFoa1lEGkN1fknG0q8FekEHFpZCYlc3oW7YwA7QkOLUH9CnL8szOtZVaQBeNG3PTuuUiGvF05XqCc4p/jRdhTxi/Kk+VujoBr8XcXv32btPffeNIZg6tzfqT7LdIV9+chtuz66Cv8cPoP3/Bfo+MImKojN7dRtitJ5ztUIjkpu3KUh9voSAVMlbRF60j2/amVLH7fn2rt2Q5+tX6H3iGyU8feMZFiufCnIzz1bBeNj6eRkJVIk/dKrGkncTyv39Bq/8RlW+myPdTsw67Q2N/G5uMXqNirwkx0Sqmp/O+YSHchUr+Sm9nnNjoX5ZQQ6Y3xsIe3xs5UCZzfj7RgyV0Yb3twFoXx/ujgPeqF9Mzrv+7cpf25QSIVQSIVQSIVQSIVQSIVQSIVQSIVQSIVQSIVQSIVQSIVQSKVEMO/1DKyCYAHJKsAAAAASUVORK5CYII=;" vertex="1" parent="Hj_LFDybidfmUEGG6L2G-1">
          <mxGeometry x="11.120000000000001" y="182" width="82" height="76" as="geometry" />
        </mxCell>
        <mxCell id="Hj_LFDybidfmUEGG6L2G-48" value="" style="shape=image;verticalLabelPosition=bottom;labelBackgroundColor=#ffffff;verticalAlign=top;aspect=fixed;imageAspect=0;image=data:image/png,iVBORw0KGgoAAAANSUhEUgAAAFoAAABVCAYAAADJ/vPXAAAAAXNSR0IArs4c6QAAAARnQU1BAACxjwv8YQUAAAAJcEhZcwAADsMAAA7DAcdvqGQAAAXLSURBVHhe7ZzBS+N4FMf3b+m/kXNPe+lp6K0MHsqCsJaVhTKKgojMiAvCKIwLZSqD2D0IGZhD1kOHuVRB0kNbB0fZoqtuUVG0BMo28N1ffknaxIm1zrQvWX0PPmjaNL58mry8mt+vP8RiMTDDh0UTwaKJYNFEsGgiWDQRLJoIFk0EiyaCRRPBookITXRyooCPtUNcXF/jmpwLHNY+Ip+JB+Y2DEIRnVguw0AEwmxCX04E5jhoQhD9HBtHzo5GIc40jAfmOVhCEL2CirOP0YgKVgLzHCwhiF7AdsvZxyjEzSfMBOY5WEIQrWBhOxIVWoZRehmQ4+AJ5WIYS4ryEQXXrRpyyYD8hkA4ogVKVkPDdHY4jDAvsb2YDMxtGIQm2iI5V8RJ29lxymifoDhHJ9kiBNHjyGaV7nJyDlqdro4YdQ3zqe7fV7LZR9zeGXWok95PZXFkCrtoDrOUiA8nu4UM4p5c4pMq6sajbe/cPtpAXZtHSuk+p6SWUDoffC1pn+vIjXrOIiWFea3ufDp99KLtMC/L/v85+CR8bwS8maM56L4384mIliFO6wNtDknPevFMAbvfUUvM5sFX5WlSPQgoT09JtBPt8xKWPBeqmDKKnH6OhxWTNs71HEZ9JWkexTvbmycoWobob8t570VLQWq+zzbQatvmU1A6rxUX2XwZlz1PjKcqWoaJ5oGGOe+nNqsNPGiKZ4IiYP34JNQ71/fGkxbtROARqqPR6uozWw3o33oGyGDRToiaW1rydQ6W8GcjIxgZeebri62OZan00JrOon3xVRt4i3gmj3LvYnxHsOiAMNFqVKHlZzEmj+gxzOY1VButPmrxXcGiiYJFEwWLJgoWTRQsmigereg01GNnH6MQxyrSgXkOlhBER+B+oRtmA5r3bs8QCUW0hZKaRl7bgq7robCl5THt/U/hkAlN9FODRRPBoolg0USwaCJYNBEsmggWTQSLJoJFE8GiiWDRRLBoIlg0ESyaCBZNBIsmgkUTwaKJGLhoa3S9Wj1FUw6tbcO4PkVV9cwjiWeQLx3iommPl2sb1zitqr4paePamXXnFA0t6xmyG8OKHKdgDQ/oNWTBHT6gYHHHnnR+VZzqbKODm4dhjT010Wpe4LCURybez7YfzkBFK9kP9rhk4wSlwizGxmZRkFMjTJy8/1lOTS5bk0isOSvFPGbHxjBb0CHn7rRP8MG5I22LFnHrLnVXtDtsV7D+Wa76ed1ZdofyJlax595pb+1g0Tvst5PHJXa1N3gx8gJvivb8FkN/h1/u2/Y3MEDRz/FH3Ur+CBtp7+MKRqcn5ESgqeKVSNtAZcU/a9UdfmDurSIhljuirTjbRNaR1BXdfW3MflBs0/OYIC0Hj1xha2tf/DSxt9r9ApSXJWvOl4HtBf9d8OTEtG/uy13b/hYGJzqxBmuXWjuLvtO9yww+3YgVAr+IRBESrcNvH2sJV/QFapWGLC/G9oLcZv+ipyDfU+tvuUf2/pp8Ezt59DNwJpKixzVYes608eDn3bpaWQl4zpV7Bm3c83s2C02OtDFQXk70LVpZ3IFVnY/VtFhOYFWaPoYqz7TeefiIpGjniDbFDgzmiLalx9IbOJKuK6j8JX7eK9oV+w82p+3a+tO7Gv4Vj9gXxV553CKSojs7eIZN3zArUaNfvZK172E12hEtlpNr+7KE2HGP6LQqjt07wrko2nm0UMv580hO/IYJ78yuaIruCrO7inW8faui9Lc9Be38z1/FUb8MvUfX8d4Re1t0LJZEruZ+P1Bv0bbEG3ya8awjsC+OzkWx88Us1uRPVeS5Dq1qTzJqV3/Hj+7roiraQhl9jeKXK7gz1NrGKfSC3XXIdfruo72iBR05PUQri5Ct81URU951LNyLonsRTE6I1vMUso0WYbau8KX4+n/QdTA9YdFEsGgiWDQRLJoIFk0EiyaCRRPBoolg0USwaCJYNBEsmggWTQSLJoJFE8GiSYjhP1QHiZ5LRbw1AAAAAElFTkSuQmCC;" vertex="1" parent="Hj_LFDybidfmUEGG6L2G-1">
          <mxGeometry x="19" y="345" width="74.12" height="70" as="geometry" />
        </mxCell>
        <mxCell id="Hj_LFDybidfmUEGG6L2G-49" value="" style="shape=image;verticalLabelPosition=bottom;labelBackgroundColor=#ffffff;verticalAlign=top;aspect=fixed;imageAspect=0;image=data:image/png,iVBORw0KGgoAAAANSUhEUgAAAFEAAABFCAYAAAAyyAq7AAAAAXNSR0IArs4c6QAAAARnQU1BAACxjwv8YQUAAAAJcEhZcwAADsMAAA7DAcdvqGQAAARSSURBVHhe7Zu/a+NIHMXzj6h3v7hb1J1hcZPGxe0WbtKYNMuCwQd34OKysLgwLD4w7F2pK1K4E8RbHARCLkUCPoQ5MFusgyHrDSErMASM4N2MLNn68bWjyY5COH8ffAq9kSb282i+UkbaEQLz3ZAmowZpMmqQ5pPCrFu4uLzF7eUFrLqZai/+/BGXt6J9yRQXv+2m9ssR0nwiGKh0B3A9RDTDyKqhENmv2rsK2iI6b0X6yR3SfAKYqPcniOW3lAf3rI2SsdiXQ6Qo1GCNZkEagTwXbsKaj23UTQ4xhVE6wPF1fPx57gDdioEds0m29f+eBlsRbWuIZt3GeB6EEGg+7qFWEOFWfsW7WgE7RgVdJzEkKW1fiFQB8XB9fODPe2bzGP4AFKf0oFuBIedLe4xE3nFtV4hUAQkrcAE1ayS2ovIw6ddhiuBL7bNE8BFtTYhkAZmgL68F5Wk7cNdUZxHzyPJP80LNQrILX9sQ4uYCUoednBwJee4Z2iWD7AszZ9EX8bdzgDRzZVMBWTuy1mk+hh2O3GTB8a5xfFAScyj9OTRCmjmxqYCIOe4gKCDKmsFZW3DSdzg5QJo5sKmAZKi292r1Y1A/lDvoohLc4eQAaernxR8YRb9YtIBkue7LqPXTwgSHPxKfSw+kmQtm69y/XAkLCFkQNCjd/wzn7VznRtLMCXGqNX7BKzFS5DZ5z6tL4SWOGOmNhpwvo59DO6T5KDxKiI8DaT4KHKIGsoQ4PWqgXC7H+fBP0LpBHOJKV71q+lhRoO4Vh7gSh3gPHKIGOEQNcIga4BA1YOwdpv4lltSDQvRcnL4tpo/LD9Jk1CBNRg3SZNQgTUYN0mTUIE1GDdJk1CBNRg3SZNQgTUYN0mTUIE1GDdJk1CBNRg3SZNQgTUYN0mTUIE1GDdJk1CBNRg3SZNQgTUYN0tRIFf7y8lUP1Zjfgr/wGV0fLrzC+78+Yere+c92z2e3uLyw8FMpfJUi6Eu0Op3kkug+7BvZJrtceGvXtfWvSZOmRjKGaLZwJp9W91z8a7/Hm5cv8eb3U3yR69LzMQ73ZJBhiEI3NvYj/RU7zvKh+niIUxw1Eo/mPS8sj9MEaWokW4j7thxGM7EZf7Pe2OthIrN1OihGQ8QdTprhCN2F9TmwheIhXqFXXfWXE6SpkSwhvkb/G7WPxEDrXI6xIbrFoK/pEEOZ+WcLu2Ifo3kiIhWnuDMU5v85xHXyQyTmxwirMFY/SNMfejfovy6hOxQh352g2fZ7SYSYVtiuEdLUSDh6jtCIzkvlD/AfGn7ISJT7FTtw5Gn+9auIUlrV5TM6982Jz4O3FzRCmhqJfPGY/x1zYtDX4hghz0GnKPYnQ9yaOVFsF9/idEN1/tMPItHXrgV5Ut+dNBfvqWQcieUfnul+r4U0NZIxREnW68RUXwFkiITWHf9wSJNRgzQZNUiTUYM0GTVIk1GDNBk1SJNRgzQZNUiTycwO/gNMQsGIj5wLFAAAAABJRU5ErkJggg==;" vertex="1" parent="Hj_LFDybidfmUEGG6L2G-1">
          <mxGeometry x="19" y="105.5" width="81" height="69" as="geometry" />
        </mxCell>
        <mxCell id="Hj_LFDybidfmUEGG6L2G-50" value="" style="shape=image;verticalLabelPosition=bottom;labelBackgroundColor=#ffffff;verticalAlign=top;aspect=fixed;imageAspect=0;image=data:image/png,iVBORw0KGgoAAAANSUhEUgAAAFkAAAAuCAYAAABDLLXWAAAAAXNSR0IArs4c6QAAAARnQU1BAACxjwv8YQUAAAAJcEhZcwAADsMAAA7DAcdvqGQAAAQFSURBVHhe7Zk/a9tAGIf7Wfw1NGstnYqmihJwoWRowIsInoLrwbiZQqiHQDqYpkNB0AzCQ4yX1os9OC64NjHunyASk9Q1AhcLfj0psi3J5ySm6JVa7oVniO90ih6/957v9CCVSkEQLUIyAUIyAUIyAUIyAUIyAUIyAcmXLD/GxsaGy2OZ0/4PkCzJTOj2Kx3V9gDDkYUpeDGFNRpi0K5Cf7X9T4hPhGQ5vQv91MTE9jyuE/YE5qmO3bTMHTsJxCpZUgtM7uWKjPViamE0GmF85zcwxSWTXVAl7r3iJCbJMrYOm7i6xZt91cRRLg15ds2jMrpe261hX6F5uLW4LgHQS5Y2Uf48xsKvjXGvg2+/vT9ZWJ0yNiWvP6vTL3L7eFv7ionXvhS/L9D/Fhrzs2+MmKGVrORRM33pO73Exz0VypvOQtB1DTuuHBlZvYfxLdm+CBudNwrUvY+49NUe26whr4T+hxigkyxnUfEJXgiQUGrNPndkPXL7Z45NX2beHXarBIldJ6l7qPvqkG1WkI35FwiNZEmD4RNs9d9Dm0/lHdR+eQ1o48D9vIj6ytqwIn6xGeC73/u+5TU4og3f/eghkCxBq1x4j8t74BJaXhuGFWjOZxkDiyvuGy2U5mMyQl/sRUVzM31xXzoilyzt1HDtPSgsJmKpRvokM7UnLzew/WGwVqm4iZBkB4WNPU/oa9R24vl5F7HkZ9C/e89omzA03kNqqAy9Pn8Ts1kQQtIqi1nxXcczTp+oiViyL0vPjqBw+6RQXLsAL8ekXuSOnUopODrzOvGynYCIJT/Fu/5s4ltolRROH5ZtxTpr/ZuwUC/yS4FSas3Htvvv8JTTJ2qiX/gyx5ivPytLhoJyd/0qPAu7W+bOEkkzAvc+ziz3oSB6yYzAb17u4scILFJrxL3Gs2EeZ5b7EEEi2cnUks+gPW7igHOQI22W0VlHtNVBeZMzjnqApm+raLGNyqr1gAIiyYzQBoHtSKBnOceTbOtt9PznELyY4ucXnbuTk7M6grfxb3zigU6yg3M4FEhVC32jAJUjQU7ncFRtYzAcuUedLuddfDIOkeOdHUsqCkY/sIAGDppihFayi4L8yY/AGbI97sHY9R1rroWM9K6BXuAkaYofJ/lYS4SfGCTfoOTDYpjsiYlT4zW2nzy8Ywss4eHzHA6NU5ihw3z3CyuosW2hecQm2cWd4iuOM503IsMB2o0GGnNuyofFe5Vij9FbUXriJl7JM+QtvOZk5X1ilv1bCX6hmgzJc27KwL5eRaN7zha78Btr5031COfdBqr6PnLP7yorySBhkv9PhGQChGQChGQChGQChGQChGQChGQChGQChGQChGQChGQChGQChGQChOTISeEPKErYjuUrUWAAAAAASUVORK5CYII=;" vertex="1" parent="Hj_LFDybidfmUEGG6L2G-1">
          <mxGeometry x="11.560000000000002" y="260" width="89" height="46" as="geometry" />
        </mxCell>
        <mxCell id="Hj_LFDybidfmUEGG6L2G-52" value="&lt;h1 style=&quot;font-size: 25px&quot;&gt;&lt;font style=&quot;font-size: 25px&quot;&gt;Lorem ipsum dolor sit amet, consectetur adipisicing elit, sed do eiusmod tempor incididunt ut labore et dolore magna aliqua.&lt;/font&gt;&lt;/h1&gt;" style="text;html=1;strokeColor=none;fillColor=none;spacing=5;spacingTop=-20;whiteSpace=wrap;overflow=hidden;rounded=0;fontSize=18;fontColor=#FFFFFF;" vertex="1" parent="Hj_LFDybidfmUEGG6L2G-1">
          <mxGeometry x="170" y="505" width="590" height="115" as="geometry" />
        </mxCell>
        <mxCell id="Hj_LFDybidfmUEGG6L2G-53" value="&lt;h1 style=&quot;font-size: 12px&quot;&gt;&lt;font style=&quot;font-size: 12px&quot;&gt;Lorem ipsum dolor sit amet, consectetur adipisicing elit, sed do eiusmod tempor incididunt ut labore et dolore magna aliqua.&lt;/font&gt;&lt;/h1&gt;" style="text;html=1;strokeColor=none;fillColor=none;spacing=5;spacingTop=-20;whiteSpace=wrap;overflow=hidden;rounded=0;fontSize=18;fontColor=#FFFFFF;" vertex="1" parent="Hj_LFDybidfmUEGG6L2G-1">
          <mxGeometry x="190" y="1005" width="150" height="115" as="geometry" />
        </mxCell>
        <mxCell id="Hj_LFDybidfmUEGG6L2G-54" value="&lt;h1 style=&quot;font-size: 12px&quot;&gt;&lt;font style=&quot;font-size: 12px&quot;&gt;Lorem ipsum dolor sit amet, consectetur adipisicing elit, sed do eiusmod tempor incididunt ut labore et dolore magna aliqua.&lt;/font&gt;&lt;/h1&gt;" style="text;html=1;strokeColor=none;fillColor=none;spacing=5;spacingTop=-20;whiteSpace=wrap;overflow=hidden;rounded=0;fontSize=18;fontColor=#FFFFFF;" vertex="1" parent="Hj_LFDybidfmUEGG6L2G-1">
          <mxGeometry x="370" y="1002.5" width="150" height="115" as="geometry" />
        </mxCell>
        <mxCell id="Hj_LFDybidfmUEGG6L2G-55" value="&lt;h1 style=&quot;font-size: 12px&quot;&gt;&lt;font style=&quot;font-size: 12px&quot;&gt;Lorem ipsum dolor sit amet, consectetur adipisicing elit, sed do eiusmod tempor incididunt ut labore et dolore magna aliqua.&lt;/font&gt;&lt;/h1&gt;" style="text;html=1;strokeColor=none;fillColor=none;spacing=5;spacingTop=-20;whiteSpace=wrap;overflow=hidden;rounded=0;fontSize=18;fontColor=#FFFFFF;" vertex="1" parent="Hj_LFDybidfmUEGG6L2G-1">
          <mxGeometry x="560" y="1000" width="150" height="115" as="geometry" />
        </mxCell>
        <mxCell id="Hj_LFDybidfmUEGG6L2G-56" value="" style="group" vertex="1" connectable="0" parent="Hj_LFDybidfmUEGG6L2G-1">
          <mxGeometry x="155.64" y="1350" width="274.36" height="53" as="geometry" />
        </mxCell>
        <mxCell id="Hj_LFDybidfmUEGG6L2G-57" value="&amp;nbsp;Email" style="rounded=0;whiteSpace=wrap;html=1;fontSize=23;align=left;" vertex="1" parent="Hj_LFDybidfmUEGG6L2G-56">
          <mxGeometry x="64.36000000000001" width="210" height="50" as="geometry" />
        </mxCell>
        <mxCell id="Hj_LFDybidfmUEGG6L2G-58" value="" style="shape=image;verticalLabelPosition=bottom;labelBackgroundColor=#ffffff;verticalAlign=top;aspect=fixed;imageAspect=0;image=data:image/png,iVBORw0KGgoAAAANSUhEUgAAAEQAAAA4CAYAAABE814IAAABd0lEQVRoge3XMYqDQBgF4Fxoa7s9g5fwCjlAzpDWIqWNTaqAZSobsVEkpIkQQSIkgoNE5G2xxJiQlZUMrDP7hAcizI/zMfM7zhbeDMw9s79+gamFIAQhCEEIQhCCEIQgEwlBCEIQgkwaZB1ZyMoApyqRkqwMsI4sdUHEtUDTCmkgTSsgroW6IAAQ5660enHuAoDaIJc6lVbvVCXqgwCAt5u/Xcvbzbt6yoM0rXirGa4jC00r9ADJygBNK9C0An66HF3DT5fd+KwM1AeJcxdOaOJSpwCAw3n76/GH87brQ05o6tFU+1+Z/gRt3/hxnO0bLwG1A1l431tgqK/0+8XzFtMS5HnS4XHVPQ+Pq0EsbUEW3uO2uNTpw70Tmi/HaA3SXxW3o3l/tfxbkDEhiI4g+2Ijrd6+2KgNcvsZk3mdqkRdENs3EOeu1Awd6CYPoloIQhCCEIQgBCEIQQgykRCEIAQhCEEIQhCCEGQiIQhBCDIO5OPTBHPPFw/8RxuYuK67AAAAAElFTkSuQmCC;" vertex="1" parent="Hj_LFDybidfmUEGG6L2G-56">
          <mxGeometry width="64.36" height="53" as="geometry" />
        </mxCell>
        <mxCell id="Hj_LFDybidfmUEGG6L2G-59" value="" style="group" vertex="1" connectable="0" parent="Hj_LFDybidfmUEGG6L2G-1">
          <mxGeometry x="160" y="1418.5" width="270" height="45.430000000000064" as="geometry" />
        </mxCell>
        <mxCell id="Hj_LFDybidfmUEGG6L2G-60" value="Subject" style="rounded=0;whiteSpace=wrap;html=1;fontSize=23;align=left;" vertex="1" parent="Hj_LFDybidfmUEGG6L2G-59">
          <mxGeometry x="60" y="2.7200000000000273" width="210" height="40" as="geometry" />
        </mxCell>
        <mxCell id="Hj_LFDybidfmUEGG6L2G-61" value="" style="shape=image;verticalLabelPosition=bottom;labelBackgroundColor=#ffffff;verticalAlign=top;aspect=fixed;imageAspect=0;image=data:image/png,iVBORw0KGgoAAAANSUhEUgAAAEYAAAA1CAYAAAD8mJ3rAAABjklEQVRoge3ZMWrDQBAFUN1K1/AlcgUdYAufwK2KlGrcpDJsp1RqgpoYY4wgggSMBXbAwkSIn8IYRGRHFlg7A/oDv18eq9nZlWesB6YdT3oBWkMYwhCGMIQhjJ4QhjCEIQxhCKMnKmDCxBdfg0qYj/0rNsVCFZAKmDibAgCqukScTcXXowbGWA/N2hQL8fWogAkTH39ruZ0TZrmdt2AAwK6D8cIk+ewqCgDsjqtxwtzaKc2K0sl4YMLEx9f3WycKALFTyjlMmPg4nPK7UAC5JuwcZlMs7kYZDUyUTnqhAHInk1OY9PO5F0pVlyIozmHuOYWaJXk9UAuT5DMxFOcw/w1zzc9HGsU5TFfzLX8KvLw/iaM4hzHWuznYHU75uN9jonSCqi5bMJIXRhUwxl7vNdIQKmCMPb/aNXeONIQaGGPPn9XuuAIgO7Oog7kkzqYqnjPVwRir7xfK4DB2HTwsLmecQWHsOuicdPuWq2N9UJhLc31kXD11qukx2kIYwhCGMIQhjJ4QhjCEIQxhBPILd57ik5HYfIYAAAAASUVORK5CYII=;" vertex="1" parent="Hj_LFDybidfmUEGG6L2G-59">
          <mxGeometry width="60" height="45.43" as="geometry" />
        </mxCell>
        <mxCell id="Hj_LFDybidfmUEGG6L2G-62" value="" style="group" vertex="1" connectable="0" parent="Hj_LFDybidfmUEGG6L2G-1">
          <mxGeometry x="340" y="1000" as="geometry" />
        </mxCell>
        <mxCell id="Hj_LFDybidfmUEGG6L2G-63" value="" style="endArrow=none;html=1;exitX=0;exitY=0;exitDx=0;exitDy=0;entryX=1;entryY=0;entryDx=0;entryDy=0;" edge="1" parent="Hj_LFDybidfmUEGG6L2G-62" source="Hj_LFDybidfmUEGG6L2G-21" target="Hj_LFDybidfmUEGG6L2G-18">
          <mxGeometry width="50" height="50" relative="1" as="geometry">
            <mxPoint x="-150" y="10" as="sourcePoint" />
            <mxPoint x="-30" y="-90" as="targetPoint" />
          </mxGeometry>
        </mxCell>
        <mxCell id="Hj_LFDybidfmUEGG6L2G-64" value="" style="endArrow=none;html=1;entryX=0;entryY=0;entryDx=0;entryDy=0;exitX=1;exitY=0;exitDx=0;exitDy=0;" edge="1" parent="Hj_LFDybidfmUEGG6L2G-62" source="Hj_LFDybidfmUEGG6L2G-21">
          <mxGeometry width="50" height="50" relative="1" as="geometry">
            <mxPoint x="-30" y="10" as="sourcePoint" />
            <mxPoint x="-150" y="-90" as="targetPoint" />
            <Array as="points">
              <mxPoint />
            </Array>
          </mxGeometry>
        </mxCell>
        <mxCell id="NEzx3l5A49-QgeTqFytk-0" value="" style="ellipse;whiteSpace=wrap;html=1;aspect=fixed;fontSize=18;fontColor=#ffffff;fillColor=#d80073;strokeColor=#A50040;" vertex="1" parent="Hj_LFDybidfmUEGG6L2G-1">
          <mxGeometry x="720" y="440" width="40" height="40" as="geometry" />
        </mxCell>
        <mxCell id="NEzx3l5A49-QgeTqFytk-1" value="" style="ellipse;whiteSpace=wrap;html=1;aspect=fixed;fontSize=18;fontColor=#ffffff;fillColor=#d80073;strokeColor=#A50040;" vertex="1" parent="Hj_LFDybidfmUEGG6L2G-1">
          <mxGeometry x="720" y="620" width="40" height="40" as="geometry" />
        </mxCell>
        <mxCell id="NEzx3l5A49-QgeTqFytk-2" value="" style="ellipse;whiteSpace=wrap;html=1;aspect=fixed;fontSize=18;fontColor=#ffffff;fillColor=#0050ef;strokeColor=#001DBC;" vertex="1" parent="Hj_LFDybidfmUEGG6L2G-1">
          <mxGeometry x="740" y="790" width="40" height="40" as="geometry" />
        </mxCell>
        <mxCell id="NEzx3l5A49-QgeTqFytk-3" value="" style="ellipse;whiteSpace=wrap;html=1;aspect=fixed;fontSize=18;fontColor=#ffffff;fillColor=#d80073;strokeColor=#A50040;" vertex="1" parent="Hj_LFDybidfmUEGG6L2G-1">
          <mxGeometry x="710" y="1080" width="40" height="40" as="geometry" />
        </mxCell>
        <mxCell id="NEzx3l5A49-QgeTqFytk-4" value="" style="ellipse;whiteSpace=wrap;html=1;aspect=fixed;fontSize=18;fontColor=#ffffff;fillColor=#d80073;strokeColor=#A50040;" vertex="1" parent="Hj_LFDybidfmUEGG6L2G-1">
          <mxGeometry x="520" y="1080" width="40" height="40" as="geometry" />
        </mxCell>
        <mxCell id="NEzx3l5A49-QgeTqFytk-5" value="" style="ellipse;whiteSpace=wrap;html=1;aspect=fixed;fontSize=18;fontColor=#ffffff;fillColor=#d80073;strokeColor=#A50040;" vertex="1" parent="Hj_LFDybidfmUEGG6L2G-1">
          <mxGeometry x="150" y="1080" width="40" height="40" as="geometry" />
        </mxCell>
        <mxCell id="NEzx3l5A49-QgeTqFytk-6" value="" style="ellipse;whiteSpace=wrap;html=1;aspect=fixed;fontSize=18;fillColor=#f8cecc;strokeColor=#b85450;" vertex="1" parent="Hj_LFDybidfmUEGG6L2G-1">
          <mxGeometry x="470" y="1190" width="40" height="40" as="geometry" />
        </mxCell>
        <mxCell id="NEzx3l5A49-QgeTqFytk-7" value="" style="ellipse;whiteSpace=wrap;html=1;aspect=fixed;fontSize=18;fillColor=#f8cecc;strokeColor=#b85450;" vertex="1" parent="Hj_LFDybidfmUEGG6L2G-1">
          <mxGeometry x="750" y="1190" width="40" height="40" as="geometry" />
        </mxCell>
        <mxCell id="NEzx3l5A49-QgeTqFytk-8" value="" style="ellipse;whiteSpace=wrap;html=1;aspect=fixed;fontSize=18;fontColor=#333333;fillColor=#f5f5f5;strokeColor=#666666;" vertex="1" parent="Hj_LFDybidfmUEGG6L2G-1">
          <mxGeometry x="120" y="100" width="40" height="40" as="geometry" />
        </mxCell>
        <mxCell id="NEzx3l5A49-QgeTqFytk-9" value="" style="ellipse;whiteSpace=wrap;html=1;aspect=fixed;fontSize=18;fontColor=#333333;fillColor=#f5f5f5;strokeColor=#666666;" vertex="1" parent="Hj_LFDybidfmUEGG6L2G-1">
          <mxGeometry x="119.99999999999994" y="180" width="40" height="40" as="geometry" />
        </mxCell>
        <mxCell id="NEzx3l5A49-QgeTqFytk-11" value="" style="ellipse;whiteSpace=wrap;html=1;aspect=fixed;fontSize=18;fontColor=#333333;fillColor=#f5f5f5;strokeColor=#666666;" vertex="1" parent="Hj_LFDybidfmUEGG6L2G-1">
          <mxGeometry x="119.99999999999994" y="258" width="40" height="40" as="geometry" />
        </mxCell>
        <mxCell id="NEzx3l5A49-QgeTqFytk-12" value="" style="ellipse;whiteSpace=wrap;html=1;aspect=fixed;fontSize=18;fontColor=#333333;fillColor=#f5f5f5;strokeColor=#666666;" vertex="1" parent="Hj_LFDybidfmUEGG6L2G-1">
          <mxGeometry x="120" y="340" width="40" height="40" as="geometry" />
        </mxCell>
        <mxCell id="NEzx3l5A49-QgeTqFytk-13" value="" style="ellipse;whiteSpace=wrap;html=1;aspect=fixed;fontSize=18;fontColor=#ffffff;fillColor=#0050ef;strokeColor=#001DBC;" vertex="1" parent="Hj_LFDybidfmUEGG6L2G-1">
          <mxGeometry x="430" y="1610" width="40" height="40" as="geometry" />
        </mxCell>
        <mxCell id="NEzx3l5A49-QgeTqFytk-15" value="" style="ellipse;whiteSpace=wrap;html=1;aspect=fixed;fontSize=18;fontColor=#ffffff;fillColor=#0050ef;strokeColor=#001DBC;" vertex="1" parent="Hj_LFDybidfmUEGG6L2G-1">
          <mxGeometry x="22" y="1930" width="76" height="76" as="geometry" />
        </mxCell>
        <mxCell id="NEzx3l5A49-QgeTqFytk-16" value="Legende" style="text;html=1;strokeColor=none;fillColor=none;align=center;verticalAlign=middle;whiteSpace=wrap;rounded=0;fontSize=37;fontColor=#000000;" vertex="1" parent="Hj_LFDybidfmUEGG6L2G-1">
          <mxGeometry y="1690" width="180" height="40" as="geometry" />
        </mxCell>
        <mxCell id="NEzx3l5A49-QgeTqFytk-17" value="" style="ellipse;whiteSpace=wrap;html=1;aspect=fixed;fontSize=18;fillColor=#f8cecc;strokeColor=#b85450;" vertex="1" parent="Hj_LFDybidfmUEGG6L2G-1">
          <mxGeometry x="24" y="2040" width="76" height="76" as="geometry" />
        </mxCell>
        <mxCell id="NEzx3l5A49-QgeTqFytk-18" value="" style="ellipse;whiteSpace=wrap;html=1;aspect=fixed;fontSize=18;fontColor=#ffffff;fillColor=#d80073;strokeColor=#A50040;" vertex="1" parent="Hj_LFDybidfmUEGG6L2G-1">
          <mxGeometry x="19" y="1830" width="76" height="76" as="geometry" />
        </mxCell>
        <mxCell id="NEzx3l5A49-QgeTqFytk-19" value="" style="ellipse;whiteSpace=wrap;html=1;aspect=fixed;fontSize=18;fontColor=#333333;fillColor=#f5f5f5;strokeColor=#666666;" vertex="1" parent="Hj_LFDybidfmUEGG6L2G-1">
          <mxGeometry x="19" y="1734" width="76" height="76" as="geometry" />
        </mxCell>
        <mxCell id="NEzx3l5A49-QgeTqFytk-20" value="Lien d&#39;ancrage" style="text;html=1;strokeColor=none;fillColor=none;align=left;verticalAlign=middle;whiteSpace=wrap;rounded=0;fontSize=37;fontColor=#000000;" vertex="1" parent="Hj_LFDybidfmUEGG6L2G-1">
          <mxGeometry x="120" y="1749" width="280" height="46" as="geometry" />
        </mxCell>
        <mxCell id="NEzx3l5A49-QgeTqFytk-21" value="Zone d&#39;affichage" style="text;html=1;strokeColor=none;fillColor=none;align=left;verticalAlign=middle;whiteSpace=wrap;rounded=0;fontSize=37;fontColor=#000000;" vertex="1" parent="Hj_LFDybidfmUEGG6L2G-1">
          <mxGeometry x="120" y="1845" width="280" height="46" as="geometry" />
        </mxCell>
        <mxCell id="NEzx3l5A49-QgeTqFytk-22" value="Boutton" style="text;html=1;strokeColor=none;fillColor=none;align=left;verticalAlign=middle;whiteSpace=wrap;rounded=0;fontSize=37;fontColor=#000000;" vertex="1" parent="Hj_LFDybidfmUEGG6L2G-1">
          <mxGeometry x="120" y="1945" width="145" height="46" as="geometry" />
        </mxCell>
        <mxCell id="NEzx3l5A49-QgeTqFytk-23" value="Zone de Saisie" style="text;html=1;strokeColor=none;fillColor=none;align=left;verticalAlign=middle;whiteSpace=wrap;rounded=0;fontSize=37;fontColor=#000000;" vertex="1" parent="Hj_LFDybidfmUEGG6L2G-1">
          <mxGeometry x="120" y="2055" width="280" height="46" as="geometry" />
        </mxCell>
        <mxCell id="NEzx3l5A49-QgeTqFytk-24" value="&lt;div style=&quot;font-size: 25px;&quot; align=&quot;left&quot;&gt;Un clique sur les lien d&#39;ancrage redirige vers la zone correspondante &lt;br style=&quot;font-size: 25px;&quot;&gt;&lt;/div&gt;" style="text;html=1;strokeColor=none;fillColor=none;align=center;verticalAlign=top;whiteSpace=wrap;rounded=0;fontSize=25;fontColor=#000000;" vertex="1" parent="Hj_LFDybidfmUEGG6L2G-1">
          <mxGeometry x="29.999999999999996" y="2310" width="497.88" height="170" as="geometry" />
        </mxCell>
        <mxCell id="NEzx3l5A49-QgeTqFytk-25" value="" style="group" vertex="1" connectable="0" parent="Hj_LFDybidfmUEGG6L2G-1">
          <mxGeometry x="5.329070518200751e-15" width="120" height="100" as="geometry" />
        </mxCell>
        <mxCell id="Hj_LFDybidfmUEGG6L2G-4" value="" style="rounded=0;whiteSpace=wrap;html=1;" vertex="1" parent="NEzx3l5A49-QgeTqFytk-25">
          <mxGeometry width="120" height="100" as="geometry" />
        </mxCell>
        <mxCell id="Hj_LFDybidfmUEGG6L2G-9" value="" style="endArrow=none;html=1;exitX=0;exitY=1;exitDx=0;exitDy=0;entryX=1;entryY=0;entryDx=0;entryDy=0;" edge="1" parent="NEzx3l5A49-QgeTqFytk-25" source="Hj_LFDybidfmUEGG6L2G-4" target="Hj_LFDybidfmUEGG6L2G-4">
          <mxGeometry width="50" height="50" relative="1" as="geometry">
            <mxPoint x="20" y="80" as="sourcePoint" />
            <mxPoint x="70" y="30" as="targetPoint" />
          </mxGeometry>
        </mxCell>
        <mxCell id="Hj_LFDybidfmUEGG6L2G-10" value="" style="endArrow=none;html=1;entryX=0;entryY=0;entryDx=0;entryDy=0;" edge="1" parent="NEzx3l5A49-QgeTqFytk-25" target="Hj_LFDybidfmUEGG6L2G-4">
          <mxGeometry width="50" height="50" relative="1" as="geometry">
            <mxPoint x="120" y="100" as="sourcePoint" />
            <mxPoint x="440" y="360" as="targetPoint" />
            <Array as="points">
              <mxPoint x="120" y="100" />
            </Array>
          </mxGeometry>
        </mxCell>
        <mxCell id="NEzx3l5A49-QgeTqFytk-30" value="" style="group" vertex="1" connectable="0" parent="Hj_LFDybidfmUEGG6L2G-1">
          <mxGeometry x="30" y="2150" width="80" height="70" as="geometry" />
        </mxCell>
        <mxCell id="NEzx3l5A49-QgeTqFytk-31" value="" style="rounded=0;whiteSpace=wrap;html=1;" vertex="1" parent="NEzx3l5A49-QgeTqFytk-30">
          <mxGeometry width="80" height="70" as="geometry" />
        </mxCell>
        <mxCell id="NEzx3l5A49-QgeTqFytk-32" value="" style="endArrow=none;html=1;exitX=0;exitY=1;exitDx=0;exitDy=0;entryX=1;entryY=0;entryDx=0;entryDy=0;" edge="1" parent="NEzx3l5A49-QgeTqFytk-30" source="NEzx3l5A49-QgeTqFytk-31" target="NEzx3l5A49-QgeTqFytk-31">
          <mxGeometry width="50" height="50" relative="1" as="geometry">
            <mxPoint x="13.333333333333332" y="56" as="sourcePoint" />
            <mxPoint x="46.666666666666664" y="21" as="targetPoint" />
          </mxGeometry>
        </mxCell>
        <mxCell id="NEzx3l5A49-QgeTqFytk-33" value="" style="endArrow=none;html=1;entryX=0;entryY=0;entryDx=0;entryDy=0;" edge="1" parent="NEzx3l5A49-QgeTqFytk-30" target="NEzx3l5A49-QgeTqFytk-31">
          <mxGeometry width="50" height="50" relative="1" as="geometry">
            <mxPoint x="80" y="70" as="sourcePoint" />
            <mxPoint x="293.3333333333333" y="251.99999999999997" as="targetPoint" />
            <Array as="points">
              <mxPoint x="80" y="70" />
            </Array>
          </mxGeometry>
        </mxCell>
        <mxCell id="NEzx3l5A49-QgeTqFytk-34" value="Logo ou photo" style="text;html=1;strokeColor=none;fillColor=none;align=left;verticalAlign=middle;whiteSpace=wrap;rounded=0;fontSize=37;fontColor=#000000;" vertex="1" parent="Hj_LFDybidfmUEGG6L2G-1">
          <mxGeometry x="125" y="2150" width="280" height="46" as="geometry" />
        </mxCell>
        <mxCell id="NEzx3l5A49-QgeTqFytk-35" value="Name &amp;amp; Presentation" style="rounded=0;whiteSpace=wrap;html=1;fontSize=37;fontColor=#000000;align=left;" vertex="1" parent="Hj_LFDybidfmUEGG6L2G-1">
          <mxGeometry x="265" y="30" width="385" height="50" as="geometry" />
        </mxCell>
      </root>
    </mxGraphModel>
  </diagram>
</mxfile>
